<?xml version="1.0" standalone="no"?>
<!DOCTYPE svg PUBLIC "-//W3C//DTD SVG 1.1//EN" "http://www.w3.org/Graphics/SVG/1.1/DTD/svg11.dtd" >
<svg xmlns="http://www.w3.org/2000/svg" xmlns:xlink="http://www.w3.org/1999/xlink" version="1.1">
<metadata></metadata>
<defs>
<font id="kruti_dev_010regular" horiz-adv-x="1572" >
<font-face units-per-em="2048" ascent="1638" descent="-410" />
<missing-glyph horiz-adv-x="776" />
<glyph horiz-adv-x="0" />
<glyph unicode="&#xd;" horiz-adv-x="776" />
<glyph unicode=" "  horiz-adv-x="776" />
<glyph unicode="&#x09;" horiz-adv-x="776" />
<glyph unicode="&#xa0;" horiz-adv-x="776" />
<glyph unicode="!" horiz-adv-x="614" d="M332 1372h125l-17 -1012h-92zM336 0v125h129v-125h-129z" />
<glyph unicode="&#x22;" horiz-adv-x="468" d="M0 973v84h479v-84h-190l375 -389v-207q-70 -78 -193 -78q-117 0 -209 72q-98 72 -98 194v408h-164zM272 563q0 -86 54 -127q27 -20 61.5 -33.5t71.5 -13.5l55 6l55 19l47 30l35 41l-379 404v-326z" />
<glyph unicode="#" horiz-adv-x="1107" d="M0 973v84h1124v-84h-532v-256l57 31l70 24q25 6 65 10q100 0 170 -73.5t70 -165.5q0 -55 -23 -117q-25 -70 -63 -119l-37 -47l-49 -53l-76 69l41 39l31 35q27 31 53 99q18 47 19 102q0 70 -41 111q-43 35 -107 34q-68 0 -100 -18q-25 -6 -45 -23l-39 -32q-2 -10 -4 -13 l-2 -10l-4 -10l-5 -6q-14 -23 -38 -37l-56 -25l-26 -6l-31 -2q-10 0 -29 -4h-20l12 -25l39 -57l49 -74l47 -61l55 -70l156 -174l-88 -57l-53 55l-72 86l-94 117l-88 125l-100 147l-72 121l-21 39l-18 41l88 45l76 -131l16 -19l29 -16l33 -12l32 -4q47 4 76 45l6 31l2 53v258 h-483z" />
<glyph unicode="$" horiz-adv-x="1132" d="M29 479v88h483v490h88v-490h487v-88h-487v-479h-88v479h-483z" />
<glyph unicode="%" horiz-adv-x="344" d="M104 164v139h144v-139h-144zM104 752v137h144v-137h-144z" />
<glyph unicode="&#x26;" horiz-adv-x="1132" d="M29 479v88h1050v-88h-1050z" />
<glyph unicode="'" horiz-adv-x="759" d="M0 973v84h760v-84h-152q29 -29 43 -55l33 -60l18 -63l9 -66q0 -109 -65.5 -208t-164.5 -142q-68 -29 -145 -29l340 -282l-72 -72l-491 416l71 71l68 -55l12 -4h12l54 2q61 8 114 37l64 43l49 51l33 55l10 43l4 60l-31 -27l-24 -18q-33 -25 -70 -37q-18 -6 -63 -10 q-98 0 -164 63q-35 31 -54.5 71t-19.5 83q0 66 58 131zM289 850q0 -61 39 -100t100 -39q70 0 125 55l16 22l23 33l-19 43q-6 20 -16 33q-51 78 -137 78q-35 0 -55 -10q-47 -12 -68 -68z" />
<glyph unicode="(" horiz-adv-x="368" d="M68 -193l92 310h137l-137 -310h-92zM168 541v118h131v-118h-131z" />
<glyph unicode=")" horiz-adv-x="1280" d="M0 973v84h1288v-84h-217v-281h-399q-29 0 -56.5 -9t-45 -24.5t-29.5 -48.5l-9 -63q0 -160 183 -234q55 -16 112 -16l23 2l31 4l24 4l10 2l-2 19q0 18 11 37q31 113 112 112q23 0 39.5 -6t28.5 -20l16 -33q6 -16 6 -39q0 -88 -67 -131q-12 -6 -43 -10l8 -37l6 -25l14 -59 l17 -51l88 -234h-113l-55 176q-8 -23 -41 -39l-88 -43l-86 -24q-35 -10 -86 -11q-137 0 -209 107l-20 41l-19 63l-104 9l-72 14q-82 16 -133 78q-43 51 -43 131q0 68 43 133q20 25 54 40t67 15q37 0 59.5 -7t50.5 -30l29 -32l12 -11l-55 -51l-16 12l-11 11l-32 18l-33 6 l-35 -6l-23 -16l-14 -29l-8 -33q0 -49 31 -86q37 -45 98 -61l102 -29q8 -2 19 -2h8q16 0 23 6l6 13l6 10l14 22q6 10 17 21l16 14l22 17l21 12l16 6l-43 35l-26 33q-51 63 -66 131q-4 20 -4 51q0 115 58.5 169t146.5 54l332 2v201h-965zM528 102q0 -53 45 -94l52 -22 q20 -6 63 -11q33 0 76 13q61 18 92 35l76 43l33 28l-33 133l-14 -4l-33 -2q-12 0 -35 -4h-23l-43 2l-73 14l-31 9l-45 -15l-31 -12q-76 -41 -76 -113z" />
<glyph unicode="*" horiz-adv-x="415" d="M104 920l89 292h118l-118 -292h-89z" />
<glyph unicode="+" horiz-adv-x="4" d="M-528 -117h120v-114h-120v114z" />
<glyph unicode="," horiz-adv-x="911" d="M0 973v84h915v-84h-139v-385q0 -61 -43 -105q-18 -23 -47 -39l-53 -22l-78 61q43 0 78 39l24 43q6 14 11 45v363h-387v-504l491 -469q12 -18 19 -37l6 -43q0 -72 -78 -115l-33 -8l-45 -12l-92 90l14 -4l33 -2l12 2h13l10 4l12 2q14 4 19 8l18 15l2 6l4 6l4 16 q0 33 -31 56l-6 6l-10 6l-475 448v529h-168z" />
<glyph unicode="-" horiz-adv-x="344" d="M104 0v135h144v-135h-144z" />
<glyph unicode="." horiz-adv-x="739" d="M0 973v84h756v-84h-80v-357q0 -61 -17 -106q-39 -104 -124 -135q-47 -16 -103 -17q-63 0 -100 17q-100 43 -137 135q-18 43 -19 96v367h-176zM285 608q0 -72 34 -119q37 -55 105 -55q74 0 113 58q12 18 22 53l8 69v359h-282v-365z" />
<glyph unicode="/" horiz-adv-x="559" d="M16 846q0 92 57.5 149.5t149.5 57.5q129 0 174 -99q14 -31 15 -61v-62h-93v64q0 82 -92 82q-45 0 -75 -39l-21 -41l-6 -47q0 -80 43 -133q29 -39 59 -62q23 -20 49 -20l70 20l80 9l37 -2l41 -5l45 -77l-137 -7q-57 -2 -80 -10q-127 -29 -127 -149q0 -90 108 -131l64 -9 q121 0 252 97l45 41l53 57v-109q0 -16 -29 -36l-73 -52q-119 -82 -269 -82q-98 0 -181 62.5t-83 157.5q0 70 51 133l21 20l33 27q-66 33 -125 106l-41 74q-14 43 -15 76zM508 973v84h61v-84h-61z" />
<glyph unicode="0" horiz-adv-x="796" d="M59 504v71q1 30 9 91q12 88 28 131l21 51l26 45l29 41l35 35q80 59 186 59q53 0 80 -10q37 -4 68.5 -21.5t54.5 -42.5l47 -55l35 -76l29 -82l16 -102l6 -158q0 -84 -10 -149q-31 -193 -135 -287q-66 -61 -191 -61q-240 0 -307 268q-27 106 -27 252zM188 504 q1 -250 58 -332q29 -43 68.5 -65.5t78.5 -22.5q43 0 78 18.5t68 65.5q61 88 61 336q0 121 -16 209q-25 137 -111 190q-37 20 -80 21q-88 0 -137 -71t-63 -228q-4 -49 -5 -121z" />
<glyph unicode="1" horiz-adv-x="796" d="M156 649v123q45 16 96 49l84 68q35 29 70 69l47 70l82 2v-1030h-127v803q-27 -29 -52 -45l-102 -66l-33 -16l-33 -14z" />
<glyph unicode="2" horiz-adv-x="796" d="M43 0q0 29 4 43l12 43q16 55 82 135l31 37l35 35l98 84q51 43 135 119l88 94q43 55 58 117q4 16 4 38q0 68 -51.5 123.5t-141.5 55.5q-141 0 -186 -121q-14 -37 -14 -86l-129 16q14 141 98 218t233 77q143 0 232 -78q94 -86 88 -207l-2 -34l-2 -27q-2 -14 -8 -27l-11 -28 l-16 -33l-21 -33l-24 -35l-25 -28l-82 -84l-110 -99l-94 -77l-54 -52l-53 -65h504v-121h-678z" />
<glyph unicode="3" horiz-adv-x="796" d="M59 268l127 21q10 -63 33 -105q27 -57 98 -90q37 -10 70 -10q90 0 150.5 62.5t60.5 150.5q0 41 -15.5 83t-39.5 60l-33 25l-33 18l-37 11l-43 4q-25 0 -43 -4l-47 -11l15 113l20 -2h39q25 6 37 8q90 35 117 88q16 31 16 74q0 33 -12 63q-27 96 -154 97q-80 0 -125 -45 q-41 -35 -61 -138l-125 23q20 123 103 193.5t204 70.5q49 0 80 -10q72 -8 135 -66q33 -33 59 -80q14 -29 25 -75q2 -10 2 -35q0 -35 -10 -64q-10 -51 -72 -106q-29 -20 -59 -37q49 -14 80 -35q113 -59 112 -219q0 -137 -97 -228t-249 -91q-172 0 -262 118q-55 72 -66 168z " />
<glyph unicode="4" horiz-adv-x="796" d="M18 246v114l467 666h105v-666h139v-114h-139v-246h-127v246h-445zM141 360h322v463z" />
<glyph unicode="5" horiz-adv-x="796" d="M59 268l134 11q18 -147 126 -183q33 -12 70 -12q78 0 154 68q63 74 63 182q0 55 -16 94q-18 63 -76.5 101t-126.5 38h-25q-47 0 -86 -28l-22 -17l-21 -14l-18 -19l-14 -20l-119 16l98 527h510v-121h-407l-56 -275l45 25l47 21l48 12l53 4q61 4 135 -25q113 -47 162 -172 q23 -63 22 -135q0 -143 -82 -242q-100 -121 -268 -120q-139 0 -228 75.5t-102 208.5z" />
<glyph unicode="6" horiz-adv-x="796" d="M55 477q0 299 109 434q94 117 258 117q63 0 117 -18q115 -41 159 -164q10 -31 17 -72l-127 -8l-15 47l-14 31l-18 26q-23 23 -57.5 38.5t-69.5 15.5q-94 0 -160 -86q-8 -14 -14 -25q-14 -27 -25 -49l-16 -47l-11 -55l-8 -66l-2 -70q45 72 109 103l69 24q41 10 72 11 q96 0 171 -55.5t110 -147.5q23 -59 22 -131q0 -47 -10 -94q-20 -94 -82 -158q-29 -29 -64 -53q-78 -41 -165 -41q-158 0 -256 110q-74 84 -93 256q-6 59 -6 127zM199 330l2 -35l4 -29l8 -30l14 -31l31 -49l43 -39l51 -25l56 -8q158 0 190 184q4 23 4 56q0 111 -57.5 170 t-141.5 59q-47 0 -79 -16q-96 -37 -121 -160q-6 -29 -4 -47z" />
<glyph unicode="7" horiz-adv-x="796" d="M68 891v123h665v-99l-49 -57l-47 -63l-49 -74l-49 -86l-50 -90l-38 -86l-17 -43l-16 -41l-15 -43l-34 -123l-15 -72l-10 -69l-2 -68h-131q0 70 10 127l15 78q20 111 75 250q37 94 78 166l43 75l43 70l45 65l51 58z" />
<glyph unicode="8" horiz-adv-x="796" d="M59 295l2 49q2 27 9 43l6 19l10 20l10 18l13 19q39 57 145 92q-78 23 -117 82q-18 27 -31 59l-8 68q0 39 4 53l15 47l24 45l37 43q84 76 215 76q137 0 218 -77t81 -191q0 -43 -10 -66q-6 -41 -45 -80t-96 -59q49 -12 82 -41q68 -43 96 -131q14 -45 14 -92q0 -70 -22 -125 q-49 -119 -176 -160q-68 -23 -140 -22q-158 0 -239 84q-45 45 -72 105t-25 122zM188 295l7 -53l18 -52l31 -47l43 -32l51 -21l59 -6q92 0 149.5 58.5t57.5 148.5q0 47 -16 82q-25 76 -115 112q-39 14 -80 15q-47 0 -82 -17q-78 -25 -108 -110q-14 -41 -15 -78zM227 768 q1 -39 11 -68q33 -70 86 -86q39 -12 73 -12q72 0 119 47q16 16 35 49q12 29 12 62q0 63 -49 117q-18 16 -57 34q-27 12 -62 13q-72 0 -121 -47q-39 -37 -47 -109z" />
<glyph unicode="9" horiz-adv-x="796" d="M59 682q0 82 23 139q37 94 119 150.5t182 56.5q27 0 49 -4q16 -2 44 -9t44 -16l45 -24q33 -18 72 -66q66 -82 86 -211q10 -76 10 -166v-24q0 -162 -43 -289q-39 -115 -122 -175t-201 -60q-70 0 -111 16q-51 12 -86 47q-68 55 -92 189l121 12q6 -45 22 -78q18 -49 84 -78 l66 -8l55 6q27 6 47 23l39 30q18 14 31 37l12 23l12 28l11 31l12 39l14 76l4 78v28q-53 -90 -172 -129l-74 -8q-125 0 -214 89t-89 247zM188 678q0 -100 58 -158q29 -31 69.5 -47t77.5 -16q145 0 187 137q14 47 14 94q0 166 -119 219q-39 16 -78 17q-41 0 -82 -17 q-70 -31 -112 -133q-14 -47 -15 -96z" />
<glyph unicode=":" horiz-adv-x="1304" d="M0 973v84h1300v-84h-688v-256h248l58 22l57 9q168 0 242 -205q20 -61 20 -117q0 -180 -78 -317l-16 -29l-23 -31l-88 55l35 50l25 43q43 74 57 170q4 25 4 55q0 88 -49 153.5t-131 65.5q-39 0 -55 -10q-45 -8 -66 -64l-8 -49q0 -74 45 -115l18 -16l29 -16l-55 -82 q-55 25 -90 88q-18 35 -27 67l-8 72l6 57l18 54l-188 2l-4 -17l-4 -10q-20 -51 -109 -84l-22 -4l-31 -2h-31l-10 -2h-8l12 -25l39 -57l49 -74l47 -61l55 -70l156 -174l-88 -57l-53 55l-72 86l-94 117l-88 125l-100 147l-72 121l-21 39l-18 41l88 45l76 -131q33 -39 102 -47 q49 0 80 31q16 16 25 38l8 56v258h-504z" />
<glyph unicode=";" horiz-adv-x="1032" d="M0 973v84h1036v-84h-147v-973h-109v315q-109 -92 -250 -92q-160 0 -270 101q-121 111 -121 278l17 -6l18 -6q14 -2 19 -4h20q76 0 127 43t51 133q0 57 -51 143l-51 66zM264 510l6 -21l9 -16l6 -16l6 -13q74 -147 225 -147q84 0 154 47q41 27 65 55l45 64v510h-360l24 -41 l17 -31l33 -80l10 -63q0 -137 -119 -209l-51 -21z" />
<glyph unicode="&#x3c;" horiz-adv-x="1007" d="M0 973v84h1049v-84h-261v-309h-368q-37 0 -76 -17q-66 -31 -90 -94q-14 -33 -14 -76q0 -201 172 -299l71 -33l101 -26l-15 14l-10 12q-14 18 -41 74q-14 47 -14 86q0 92 57 141.5t141 49.5q74 0 134.5 -41t74.5 -111q4 -20 4 -47q0 -119 -94 -188q-47 -35 -102 -54 q-68 -14 -115 -14q-178 0 -317 121q-80 68 -118 140.5t-38 170.5q0 115 76 189.5t192 74.5l281 2v234h-680zM596 297q0 -86 45 -135l18 -17l29 -16q80 0 113 102q6 23 10 66l-6 47l-19 39q-27 35 -71 35q-31 0 -50.5 -8.5t-37.5 -26.5l-23 -39z" />
<glyph unicode="=" horiz-adv-x="1073" d="M-4 973v84h1100v-84h-148v-973l-106 2v381l-490 -291l-63 92l508 265l-117 112q-121 117 -170 117q-74 0 -197 -64l-137 -71l-63 82q20 12 63 34l178 74l103 37q35 12 63 12q63 0 176 -116l58 -60l88 -94v461h-846z" />
<glyph unicode="&#x3e;" horiz-adv-x="1204" d="M0 973v84h1229v-84h-168v-973h-109v424h-219l-2 -59q-4 -109 -80 -175q-102 -88 -186 -88l94 -59l109 -47l-64 -80l-160 98l-36 27l-33 27l-19 18l-49 2h-69q-59 0 -95 47q-10 18 -14 55l6 31l19 31l26 18l33 9q20 0 31.5 -2.5t29.5 -12.5l29 -16l31 -23l20 -22l27 -33 l70 14q37 8 51 17q123 55 123 178q0 25 -4 31l-13 20l-18 12l-25 4l-35 -4l-94 -24l-28 -4l-46 6q-43 12 -92 53l-45 47q-90 94 -90 182q0 51 43 78l29 11l37 4l305 2v176h-549zM246 692l2 -20l10 -23l21 -35l36 -45l25 -26l27 -17l26 -8l35 -2l33 2q33 2 55 8l53 9l35 4 q25 0 45.5 -7.5t50.5 -27.5l9 -8l14 -11l229 2v486h-297v-260h-391l-14 -11z" />
<glyph unicode="?" horiz-adv-x="663" d="M0 973v84h668v-84h-320l-24 -23l-17 -16l-33 -53q-6 -16 -10 -56q0 -59 53 -102q20 -16 45 -29l50 -8l176 2l37 -76h-113q-31 0 -66 -14q-131 -41 -131 -164q0 -68 58 -106q29 -20 63 -33l76 -8q72 0 160 41q20 8 65 32l82 52q27 20 33 34v-110l-66 -41l-51 -27 q-127 -66 -239 -65q-57 0 -105 16q-115 39 -162 123q-20 45 -20 92q0 84 57 141l23 23l35 29l-50 20l-32 21q-82 51 -82 149l4 41l14 47l21 41l20 25z" />
<glyph unicode="@" horiz-adv-x="1599" d="M258 -227l1024 1474l72 -51l-1041 -1493z" />
<glyph unicode="A" horiz-adv-x="811" d="M596 -109v1196h109v-1196h-109z" />
<glyph unicode="B" horiz-adv-x="1007" d="M0 973v84h1012v-84h-219v-305h-385q-41 0 -68 -17q-53 -25 -86 -104q-10 -35 -10 -74q0 -197 200 -301q53 -22 106 -22h5q106 0 181 62t75 159q0 66 -43 129l-18 20l-25 27l72 69q14 0 37 -24l45 -66q23 -43 34 -112q2 -12 2 -43q0 -131 -100 -216t-260 -85 q-168 0 -291 116q-129 121 -129 291q0 129 83 203t206 74l264 2v217h-688z" />
<glyph unicode="C" horiz-adv-x="471" d="M0 973v84h512v-84h-512zM131 510q0 117 86 203q43 43 94 65q53 22 96 22q7 0 13 -1l47 -4q18 0 51 -9l10 -4l17 -4l14 -90q-10 12 -39 21l-53 8q-33 0 -47 -4l-45 -13q-20 -6 -41 -18t-31 -25l340 -233l12 29v-142q-18 -25 -47 -45l-53 -26q-25 -12 -57 -19l-60 -4 q-10 -1 -19 -1q-104 0 -192 79q-53 47 -74.5 97t-21.5 118zM236 510q-1 -8 -1 -15q0 -82 60 -135q29 -33 68.5 -48t76.5 -15h33q16 6 23 8q27 8 55 29l20 14l25 23l-336 237l-8 -20l-4 -15l-10 -36z" />
<glyph unicode="D" horiz-adv-x="860" d="M0 973v84h864v-84h-133v-309l49 41l45 32l29 15l29 12l26 6l29 2h8q32 0 58 -14l10 -74l-13 2l-18 2l-35 -4l-53 -12q-104 -25 -152 -162q-12 -37 -12 -72v-438h-106v303q-76 -76 -191 -76q-123 0 -209 81t-86 202q0 113 86 195q61 59 146 77q27 6 55 6l55 -6l51 -16v-86 l-47 16l-45 6q-74 0 -125 -51t-63 -137q0 -88 51 -145q25 -31 59.5 -47.5t69.5 -16.5q74 0 150 76q43 43 43 82v510h-625z" />
<glyph unicode="E" horiz-adv-x="563" d="M0 973v84h580v-84h-215v-365h360v-88h-360v-155l-3 -15v-8q-6 -10 -10 -14l-33 -4q-20 0 -49 22l-69 74l-60 80q-16 31 -20 55l6 23q8 10 23 18l10 4l20 6l80 2v365h-260z" />
<glyph unicode="F" horiz-adv-x="688" d="M37 565q31 -14 78 -28l90 -9q115 0 196 58q90 61 91 180q0 78 -54.5 140.5t-138.5 62.5q-55 0 -92 -29q-20 -16 -31 -41l-8 -45q0 -61 65 -90l27 -8l39 -6v-86h-27q-123 0 -180 84q-29 41 -29 110q0 129 152 180q43 14 84 15q63 0 115 -23q113 -37 161 -153 q20 -53 21 -111q0 -221 -221 -287q-70 -20 -160 -20l-22 2q12 -31 43 -62l71 -53q88 -51 176 -51q168 0 283 125l47 51l51 76v-160l-57 -53l-47 -35l-68 -39l-65 -27l-68 -18l-67 -4q-10 -1 -19 -1q-83 0 -172 46q-88 43 -162 131q-33 41 -49 72z" />
<glyph unicode="G" horiz-adv-x="1204" d="M0 973v84h1200v-84h-264v-213l33 -19l26 -14q57 -31 99 -117q34 -72 34 -159q0 -75 -18 -136q-33 -104 -131 -168q-47 -24 -110 -24h-5q-86 0 -149.5 46t-93.5 128q-25 -86 -89.5 -136t-150.5 -50q-186 0 -246 196q-16 53 -16 121q0 74 16 121q47 137 137 182 q49 23 115 23q94 0 143 -43q57 -31 95 -121l39 61q10 14 22 33q12 12 19 16q49 43 122 58v215h-827zM227 375q4 -14 9 -37q20 -94 79 -125q31 -18 70 -18q98 0 158 122l18 52l19 73l-19 66q-25 88 -86 133q-41 29 -90 29q-98 0 -147 -142q-10 -45 -11 -90v-63zM676 414 l12 -49q41 -162 180 -162q80 0 117 78q14 33 19 69l8 92v58q-6 22 -8 30q-6 43 -23 70q-37 74 -125 74q-92 0 -160 -144q-6 -14 -16 -41l-4 -47v-28z" />
<glyph unicode="H" horiz-adv-x="563" d="M8 866q-1 8 -1 15q1 79 59 125q64 52 149 51q139 0 182 -105q14 -37 15 -75v-277h336v-88h-336v-186l-2 -13l-17 -14l-20 -4q-20 0 -54 27q-53 39 -90 81l-77 93q-23 35 -27 55l6 16l16 17l19 10l14 4l123 2v287q0 39 -26.5 64.5t-65.5 25.5q-18 0 -41 -8l-35 -19 l-22 -32l-9 -44l2 -28l11 -31l4 -14l10 -19l-102 2l-9 15l-2 12l-8 29zM504 973v84h80v-84h-80z" />
<glyph unicode="I" horiz-adv-x="440" d="M0 973v84h453v-84h-189v-340q0 -86 60 -141q27 -27 57 -39q20 -6 59 -11q117 0 189 129q10 18 14 47v-157l-45 -41l-51 -29l-29 -10l-24 -6l-29 -6h-27q-111 0 -194.5 77.5t-83.5 202.5v324h-160z" />
<glyph unicode="J" horiz-adv-x="1179" d="M51 479l162 96q20 6 39 23l45 29l20 14l27 21l-43 24l-27 23q-29 25 -53 69q-16 39 -16 84q0 90 62.5 140.5t148.5 50.5q78 0 145.5 -50.5t67.5 -140.5q0 -37 -17 -76q-12 -25 -45 -61l-26 -23l-35 -28l84 -49l139 -76l66 -27l129 94v357h-219v84h479v-84h-148v-973h-112 v508l-525 -404l-63 89l381 272l-146 76l-43 16l-67 35l-29 18l-147 -102l-164 -109zM299 862q0 -59 57 -106l37 -25l27 -8l29 14q12 6 20 17q49 39 51 100q0 29 -7.5 47.5t-27.5 38.5l-39 25l-43 8q-37 0 -73 -29l-23 -35z" />
<glyph unicode="K" horiz-adv-x="1204" d="M0 973v84h1208v-84h-147v-973h-109v717h-653q-29 0 -29 -27l4 -26l15 -29l20 -35l15 -18l30 -37l27 -25l35 -20l41 -6l41 4l55 18l53 16l45 7q57 0 94 -50q29 -45 35 -114q0 -53 -22.5 -100.5t-63.5 -82t-104 -71.5q-51 -23 -94 -23l204 -153l-84 -66l-208 201h-93 q-94 0 -141 63q-10 20 -14 52l6 28l18 27l27 18l33 6q23 0 45 -14l57 -37l39 -37l14 -20l82 18l58 19q141 61 141 172l-6 26q-4 14 -15 21l-20 12l-27 4l-34 -4l-99 -24l-30 -4q-100 0 -195 106q-49 55 -71.5 101t-22.5 98q0 39 30 65l35 17l43 6l684 2v172h-952z" />
<glyph unicode="L" horiz-adv-x="759" d="M-20 973v84h808v-84h-221v-342q-4 -14 -4 -21l-12 -45q-12 -43 -68 -67q-18 -6 -43 -13q-16 0 -24 -4l-21 -2l-22 2q-12 0 -29 8l127 -192l55 -72l99 -112l43 -43l-84 -70q-37 14 -99 104l-249 363l-58 94l-37 64l-37 65l89 58l59 -115q37 -72 121 -72l45 6q20 6 26 21 l15 30l4 44l-2 30v281h-481zM592 616h360v-84h-288z" />
<glyph unicode="M" horiz-adv-x="1079" d="M0 973v84h1096v-84h-172v-268h-437l-12 -17l-2 -14l2 -23q4 -16 10 -24l17 -33l30 -43l31 -37l31 -25l31 -18l30 -4h13l8 2l141 41l51 12l35 4q47 0 82 -55l16 -51l7 -58q0 -78 -23 -139q-45 -123 -168 -168q-55 -20 -125 -20q-147 0 -299 119q-129 100 -217 221l-63 86 l-21 41l80 78q4 -20 21 -45q8 -18 55 -82q29 -43 96 -123l100 -97q47 -45 131 -83q61 -31 117 -31q92 0 151.5 63.5t59.5 175.5q0 68 -53 68q-16 0 -47 -10q-39 -6 -80 -27l-43 -14l-29 -4q-100 0 -197.5 126t-97.5 205l6 39q6 20 23 27l35 14l45 4l354 2v185h-819z" />
<glyph unicode="N" horiz-adv-x="1204" d="M0 973v84h1208v-84h-260v-176l41 -23l43 -18q80 -61 80 -174t-47 -207q-94 -188 -328 -275q-102 -39 -209 -39q-139 0 -226 79t-87 214t109 228l-31 12l-25 12l-22 10l-17 13q-94 72 -94 166q0 37 4 55l19 51l26 39q12 18 31 31zM240 803q0 -66 67 -121q45 -29 88 -37 q12 -4 37 -4h23l26 2h13l14 2h12q10 2 12 4l39 -78l-6 -2l-8 2h-22q-88 0 -154 -61t-66 -148q0 -86 66 -159q74 -66 160 -66q113 0 202 62l39 26l49 37l-51 62l-45 82l-33 90q-10 47 -10 86q0 106 74 168l37 20l41 21v182h-496q-37 0 -76 -80l-24 -49zM788 573q0 -47 17 -98 q12 -41 41 -84l22 -33l35 -36l12 10l25 30q27 33 57 117q14 43 15 103l-6 47q-10 86 -107 86q-51 0 -84 -43l-20 -45z" />
<glyph unicode="O" horiz-adv-x="468" d="M0 973v84h475v-84h-475zM131 510q0 117 83 210q78 87 181 87h13l36 -2l41 -6l35 -8q18 0 29 -5l22 -106l-22 12l-19 8l-55 17l-55 6q-45 0 -76 -14q-53 -18 -88 -107q-10 -35 -10 -74q0 -147 108 -200q43 -14 82 -15h23q27 6 39 9q33 8 61 28q68 31 100 88v-119l-47 -34 l-45 -31l-63 -23l-64 -6q-125 0 -213 80q-49 45 -72.5 92t-23.5 113z" />
<glyph unicode="P" horiz-adv-x="663" d="M0 973v84h676v-84h-676zM100 696v84h625v-84h-137l-60 -41l-41 -32q-100 -80 -100 -177q0 -106 80 -137l57 -8q131 0 240 143l72 95q25 33 24 55v-182q-6 -16 -33 -43l-71 -60q-80 -66 -176 -86q-31 -6 -60 -6q-102 0 -170 59q-33 29 -51 72t-18 94q0 109 102 211 q27 27 53 41z" />
<glyph unicode="Q" horiz-adv-x="1280" d="M0 973v84h1292v-84h-571v-305l20 18l43 31q63 45 123 45q82 0 151.5 -42t100.5 -114q20 -49 21 -100q0 -123 -101 -264l-37 -41l-69 -72l-88 72l53 39l39 36q94 106 94 238q0 66 -37 113q-45 51 -123 51q-35 0 -67 -23q-43 -29 -70 -69q-8 -8 -24 -39l-29 -53v-494h-109 v408q-20 -25 -45 -37l-47 -23l-51 -14l-51 -4q-8 -1 -16 -1q-44 0 -91 19q-104 43 -143 141q-20 51 -21 109v375h-147zM252 584q0 -92 47 -140q14 -14 43 -26l66 -8q88 0 145 57q49 49 59 102v404h-360v-389z" />
<glyph unicode="R" horiz-adv-x="563" d="M0 973v84h567v-84h-567zM117 530q0 84 44 145.5t128 61.5l463 2v-80h-408q-39 0 -59 -10q-66 -12 -66 -102q0 -76 37 -156q43 -100 104 -170l97 -108q35 -31 51 -35l-72 -66l-94 84l-66 72q-27 29 -67 92q-92 141 -92 270z" />
<glyph unicode="S" horiz-adv-x="12" d="M-774 1327l76 84l379 -354h-52zM-547 1520l96 53l328 -516h-72z" />
<glyph unicode="T" horiz-adv-x="835" d="M0 973v84h836v-84h-836zM121 723l88 70q-6 -6 -6 -18q0 -21 18 -62l82 -181q117 -258 285 -258q86 0 117 99q8 27 12 69q0 53 -45 136q-39 74 -86 120q-23 27 -31 31l465 2v-80h-293l27 -33l37 -67l20 -57l8 -43q0 -104 -55 -175q-67 -81 -181 -81h-3q-139 0 -256 135 q-43 49 -83 113.5t-71 140.5l-41 100q-2 12 -8 39z" />
<glyph unicode="U" horiz-adv-x="540" d="M0 973v84h549v-84h-549zM121 631q0 39 33 59l18 6l25 2l534 2v-84h-354v-180l-2 -10v-10q0 -12 -13 -19l-30 -4q-10 0 -45 25l-76 76q-16 16 -38.5 44.5t-51.5 92.5z" />
<glyph unicode="V" horiz-adv-x="1007" d="M12 973v84h1008v-84h-211v-318h-365q-37 0 -75 -16q-63 -29 -97 -100q-12 -27 -12 -70q0 -125 99.5 -228.5t236.5 -103.5q131 0 221 90l55 70l89 -49q-43 -72 -105 -115q-113 -80 -244 -80q-184 0 -319 127q-141 131 -141 297q0 119 80.5 193.5t187.5 74.5l285 3v225 h-693z" />
<glyph unicode="W" horiz-adv-x="24" d="M-690 1470l106 3q0 -96 63.5 -154.5t160.5 -58.5q141 0 202 118q16 43 17 92l104 3q0 -117 -94 -207q-45 -45 -98 -64q-59 -20 -133 -20q-141 0 -223.5 77.5t-104.5 210.5z" />
<glyph unicode="X" horiz-adv-x="587" d="M0 973v84h588v-84h-152v-545q-8 -37 -45 -43q-27 0 -63 23l-82 69q-82 86 -90 150q2 14 4 18l14 12l8 2q10 2 13 5h8l10 2l119 2v305h-332z" />
<glyph unicode="Y" horiz-adv-x="788" d="M0 973v84h793v-84h-793zM235.5 649q83.5 80 217.5 80q55 0 105 -15.5t91 -45.5l56 -43q18 -14 20 -27l18 14l17 13l39 26l28 19l47 20l52 17l20 4l27 4v-94l-53 -15l-64 -31l-27 -18q-16 -12 -28 -27l-35 -41l-31 -49l-30 -59l-17 -47l-88 51l4 25l17 30l34 60l13 30 q-14 41 -90 72l-70 29q-20 6 -64 10q-41 0 -77 -16q-29 -12 -60 -43q-55 -72 -55 -144q0 -156 176 -266l72 -45l104 -49l-51 -86q-104 0 -277 178q-124 128 -124 274q0 125 83.5 205z" />
<glyph unicode="Z" horiz-adv-x="10" d="M-383 1374q0 86 66.5 135.5t156.5 49.5l60 -7l55 -18l-2 -82l-14 4l-15 6l-39 8l-43 5q-61 0 -97 -42t-36 -104q0 -47 17.5 -97t48.5 -91l28 -39l39 -47l-78 2q-18 12 -28 28l-47 74q-6 8 -27 55l-27 58q-18 55 -18 102z" />
<glyph unicode="[" horiz-adv-x="960" d="M0 973v84h977v-84h-453v-293q0 -92 -84 -135l-73 -21l-95 -6l50 -108l49 -76q55 -86 152.5 -135t201.5 -49q106 0 213 47l70 30q12 6 51 31q53 35 82 64v-107l-92 -59l-109 -47l-115 -33q-68 -10 -108 -10q-88 0 -148 16q-150 41 -258 176q-78 98 -118 193l-35 81 l-58 166l93 50l34 -115l13 -12l12 -9l33 -14l39 -4l41 6q39 12 49 47l6 39v287h-420zM696 594q0 82 57.5 144.5t139.5 78.5q20 4 47 4l45 -6l47 -16l25 -74l-47 12l-52 6q-39 0 -61 -10q-53 -8 -86 -69q-10 -27 -10 -66q0 -98 82 -129l53 -8q37 0 59 8q57 8 111 61 q20 20 35 48v-121l-33 -27l-27 -16l-77 -33l-37 -8q-10 -2 -35 -2q-147 0 -219 131q-16 43 -17 92z" />
<glyph unicode="\" horiz-adv-x="835" d="M51 1251l60 37l49 29q119 70 252 69q102 0 195 -54t134 -144q27 -59 27 -125q0 -141 -115 -256q-150 -150 -258 -150v-297h-106v345q55 0 190 86q184 117 185 260q0 96 -74 171.5t-170 75.5q-90 0 -203 -65q-45 -27 -63.5 -42t-24.5 -30zM285 0v113h118v-113h-118z" />
<glyph unicode="]" horiz-adv-x="368" d="M76 -172l84 289h125l-121 -289h-88z" />
<glyph unicode="^" horiz-adv-x="391" d="M139 944l121 293h88l-84 -293h-125z" />
<glyph unicode="_" horiz-adv-x="1671" d="M0 973v84h1692v-84h-811v-428l247 114l-12 21l-2 29q-2 23 8 45q12 47 60 71q16 8 47 13q106 0 106 -127q0 -39 -45 -72l-20 -12l-27 -17l158 -198l-66 -19q-14 -4 -43 -16q-109 -49 -108 -139q0 -37 12 -68q12 -23 37 -45l47 -23l59 -8q41 0 80 17q53 23 80 49l27 26 l35 39l75 -86l-45 -39l-37 -24l-53 -27l-49 -18l-53 -13l-51 -4q-51 -4 -113 17q-164 49 -164 211q0 92 57 145q68 63 148 64l-113 137l-282 -135v-453h-109v408l-440 -328l-68 92l461 299l-107 115q-98 109 -153 116q-59 0 -195 -69l-139 -72l-63 82l47 25l127 57l147 57 q37 14 86 21q27 0 72 -31q61 -47 108 -98l88 -99q23 -27 29 -45v443h-772z" />
<glyph unicode="`" horiz-adv-x="10" d="M-526 -244q0 51 16 90q23 74 113 119q43 14 84 15h170v-84h-146q-82 0 -117 -76q-8 -20 -12 -56q0 -78 56 -112q53 -45 129 -45q59 0 94 18l47 25l22 22l54 -80l-33 -20l-31 -14q-74 -35 -170 -35q-61 0 -96 16q-115 31 -158 119q-23 47 -22 98z" />
<glyph unicode="a" horiz-adv-x="4" d="M-195 1286v133h142v-133h-142z" />
<glyph unicode="b" horiz-adv-x="911" d="M0 973v84h924v-84h-232v-268h-428l-6 -9l-6 -10l2 -29l8 -22l19 -31l30 -39l60 -65l32 -27l29 -6q41 0 100 18q14 4 54 19l49 14l41 4q49 0 82 -45q12 -18 22 -51l8 -55q0 -66 -22 -129q-29 -82 -109 -144q-27 -20 -51 -37q-51 -26 -95 -26h-3l22 -25l21 -14l45 -39 l37 -33l82 -53l57 -35l-55 -88l-31 21l-22 14q-27 16 -62 47l-104 90l-52 51l-38 35l-17 21h-72q-23 2 -67 10q-12 2 -31 10q-96 33 -96 131l6 35q6 18 21 33l28 20l39 8q70 0 150 -79l26 -35l37 -45q39 0 72 10q33 4 51 16q125 56 125 182v15l-2 39q-2 25 -3 34t-11 15 l-21 8l-33 -8l-67 -25l-78 -22l-57 -8q-84 0 -180.5 132t-96.5 195l6 31l23 29l33 20l34 8l357 2v185h-584z" />
<glyph unicode="c" horiz-adv-x="911" d="M0 973v84h907l4 -84h-147v-973h-109v311q-18 -25 -47 -45l-53 -26q-25 -12 -57 -19l-60 -4q-10 -1 -19 -1q-104 0 -192 79q-53 47 -74.5 97t-21.5 118q0 117 86 203q43 43 94 65q53 22 96 22q7 0 13 -1l47 -4q18 0 51 -9l10 -4l17 -4l14 -90q-10 12 -39 21l-53 8 q-33 0 -47 -4l-45 -13q-20 -6 -41 -18t-31 -25l340 -233l12 45v504h-655zM236 510q-1 -8 -1 -15q0 -82 60 -135q29 -33 68.5 -48t76.5 -15h33q16 6 23 8q27 8 55 29l20 14l25 23l-336 237l-8 -20l-4 -15l-10 -36z" />
<glyph unicode="d" horiz-adv-x="1304" d="M0 973v84h1321v-84h-590v-309l37 34l25 21q61 51 143 51q115 0 201 -78q80 -72 80 -186q0 -119 -107 -250l-45 -55l-61 -68l-89 68q14 4 33 22q90 90 133 193q23 55 23 98q0 57 -21 100q-37 72 -135 72q-84 0 -155 -90q-27 -35 -44.5 -79t-17.5 -79v-438h-106v303 q-76 -76 -191 -76q-117 0 -206 80t-89 203t84 199q61 55 144 73q27 6 55 6l55 -6q37 -8 55 -16v-86l-20 8l-10 6l-31 8l-31 5q-86 0 -135 -61.5t-49 -145.5q0 -131 100 -181q37 -14 76 -14q74 0 150 76q43 43 43 82v510h-625z" />
<glyph unicode="e" horiz-adv-x="966" d="M0 973v84h999v-84h-153v-973h-107v516h-374v-143l2 -23q-2 -10 -5 -12l-16 -12l-27 -4q-33 0 -81 53q-39 39 -105 123q-18 29 -20 53l6 27q8 10 22 18l11 4l20 6l88 2v365h-260zM365 608h374v365h-374v-365z" />
<glyph unicode="f" horiz-adv-x="442" d="M0 973v84h186l-8 18l-12 51l-12 56l-2 32q-1 9 -1 18q0 82 49 151q54 77 142 112q61 23 129 23q154 0 350 -119q82 -49 144 -101l147 -122l59 -62l62 -59l-137 2l-52 45l-49 49q-41 41 -72.5 64.5t-48.5 33.5l-122 82q-66 43 -154 74q-74 25 -133 25q-47 0 -82 -17 q-76 -25 -117 -119q-14 -49 -14 -87v-9l2 -41l10 -47l12 -39l9 -16l178 2v-84h-174v-973h-109v973h-180z" />
<glyph unicode="g" horiz-adv-x="931" d="M0 973v84h973v-84h-205v-264h-487q-18 0 -27 -11l-8 -18l8 -35q4 -18 27 -43l8 -16l12 -15l25 -32l20 -25l14 -8l31 6l33 6l61 8l47 4q11 1 22 1q46 0 105 -13q119 -31 156 -104q20 -41 21 -92q1 -10 1 -20q0 -60 -44 -101l-43 -33l-15 -10l-80 61l11 4l10 6l8 4l6 7 q31 31 37 82q0 109 -119 120l-84 9q-190 0 -241 -119q-18 -39 -19 -82q0 -63 55 -115q61 -57 170 -84l175 -43q20 -2 47 -2q18 0 20 4l-39 -78q-10 -8 -37 -8q-61 0 -159 33q-25 8 -78 27q-266 90 -266 278q0 51 32 103q16 27 39 49l49 49l-43 45l-26 35q-39 49 -56 88 q-10 29 -16 76l6 36q6 14 23 29l30 16l37 7l432 2v176h-659z" />
<glyph unicode="h" horiz-adv-x="440" d="M-428 1223q-1 6 -1 12q0 35 19 88q59 174 228 174q74 0 151 -55q98 -70 162 -166l59 -92l74 -129l195 2v-84h-172v-973h-107v973h-180v84h156q2 2 2 8q0 49 -164 238q-99 114 -171 114h-1q-68 0 -103 -51q-23 -35 -34 -86q-2 -14 -2 -39t8 -53q12 -41 22 -62l27 -51 l14 -20l-119 2l-24 33l-21 40l-14 46z" />
<glyph unicode="i" horiz-adv-x="911" d="M0 973v84h940v-84h-168v-973h-108v408l-37 -31l-27 -19q-72 -49 -156 -49q-178 0 -264 174q-20 55 -20 111v379h-160zM264 580q0 -119 115 -181q18 -6 61 -10q63 0 125 39q25 16 39 31l27 28l33 43v443h-400v-393z" />
<glyph unicode="j" horiz-adv-x="761" d="M-41 973v84h838v-84h-164v-268q0 -137 -139 -189q-38 -14 -73 -14h-9l-39 2q-25 4 -37 10l147 -211l58 -72l106 -116l45 -45l-76 -70q-35 14 -114 111q-104 123 -199 264l-63 94l-60 98l-43 74l-41 74l84 61l84 -143q31 -51 117 -51q72 0 103.5 31.5t39.5 101.5v258h-565 z" />
<glyph unicode="k" horiz-adv-x="440" d="M-20 973v84h507v-84h-198v-973h-109v973h-200z" />
<glyph unicode="l" horiz-adv-x="1204" d="M-20 973v84h1249v-84h-168v-973h-109v532h-288l-72 84h360v357h-385v-342q-4 -14 -4 -21l-12 -45q-12 -43 -68 -67q-18 -6 -43 -13q-16 0 -24 -4l-21 -2l-22 2q-12 0 -29 8l127 -192l55 -72l99 -112l43 -43l-84 -70q-37 14 -99 104l-249 363l-58 94l-37 64l-37 65l89 58 l59 -115q37 -72 121 -72l45 6q20 6 26 21l15 30l4 44l-2 30v281h-481z" />
<glyph unicode="m" horiz-adv-x="1107" d="M-20 973v84h1148v-84h-288l24 -35l17 -25q18 -27 32 -71q6 -35 11 -68q0 -117 -109 -188l41 -19q47 -25 84 -86q47 -78 47 -172q0 -57 -22 -108q-72 -166 -277 -166q-156 0 -307 170q-117 133 -201 317l-55 123q-14 43 -12 53l92 58l31 -84l32 -82q25 -61 49 -111 q6 -12 33 -61q137 -242 275 -289q29 -10 63 -10q57 0 92 17.5t62 49.5q35 53 35 136q0 68 -29 126t-88 87q-37 18 -80 18l-188 2l-39 88h223l59 6q27 6 39 17q49 35 49 116q0 55 -53 129l-22 25l-31 35z" />
<glyph unicode="n" horiz-adv-x="1007" d="M0 973v84h1028v-84h-223v-277h-377q-53 0 -102 -49l-33 -51q-6 -16 -10 -55q0 -188 178 -254l74 -17l106 -8q-2 10 -4 12v11q0 20 -4 30l-2 23q0 31 4 45l18 41q25 39 86 39q20 0 37 -10q35 -12 55 -62l9 -41q0 -68 -39 -102l-17 -15l-24 -16l51 -113l35 -59l35 -47 l14 -16l16 -23h-135l-55 109l-57 120l-17 -4h-14q-160 0 -266 52q-98 47 -142.5 119.5t-44.5 183.5q0 92 59.5 167.5t145.5 75.5l303 2v189h-688z" />
<glyph unicode="o" horiz-adv-x="911" d="M-20 973v84h976v-84h-188v-973h-109v319l-47 -34l-45 -31l-63 -23l-64 -6q-125 0 -213 80q-49 45 -72.5 92t-23.5 113q0 117 83 210q78 87 181 87h13l36 -2l41 -6l35 -8q18 0 29 -5l22 -106l-22 12l-19 8l-55 17l-55 6q-45 0 -76 -14q-53 -18 -88 -107q-10 -35 -10 -74 q0 -147 108 -200q43 -14 82 -15h23q27 6 39 9q33 8 61 28q68 31 100 88v535h-679z" />
<glyph unicode="p" horiz-adv-x="1107" d="M0 973v84h1116v-84h-143v-973h-109v408q-6 -14 -33 -41l-73 -60q-47 -37 -123 -65q-61 -25 -115 -25q-102 0 -170 59q-33 29 -51 72t-18 94q0 109 102 211q27 27 53 41l-336 2v84h625v-84h-137l-60 -41l-41 -32q-100 -80 -100 -177q0 -106 80 -137l57 -8q119 0 242 115 q20 18 43 41q55 59 55 86v430h-864z" />
<glyph unicode="q" horiz-adv-x="10" d="M-778 -285l69 88l76 -55l58 -39q139 -94 266 -94q152 0 213 102q14 25 14 68q-4 27 -14 51l-31 41q-12 16 -37 31l-47 8q-49 0 -106 -39l-45 -45l-82 72l24 22l53 31q53 31 127 43q12 2 41 2q98 0 156 -57q31 -31 49 -72q14 -47 14 -94q0 -128 -110 -195 q-96 -59 -223 -59q-102 0 -234 55q-61 29 -80 37q-41 20 -65 37q-63 37 -86 61z" />
<glyph unicode="r" horiz-adv-x="1007" d="M-20 973v84h1064v-84h-188v-973h-108v680h-383q-35 0 -64 -12q-47 -10 -70 -70l-8 -51q0 -141 86 -279q90 -143 156 -182q20 -12 39 -12l-72 -74q-10 0 -26 16l-58 56l-84 94q-8 8 -35 49q-6 10 -30 51q-82 143 -82 281q0 90 47 153q20 29 58 47.5t77 18.5l449 2v205 h-768z" />
<glyph unicode="s" horiz-adv-x="6" d="M-668 1495l72 78l420 -516h-68z" />
<glyph unicode="t" horiz-adv-x="1304" d="M0 973v84h1321v-84h-168v-973h-109v633h-317q12 -8 27 -41l37 -90l20 -72l8 -55q0 -49 -16 -96q-29 -86 -121 -129q-45 -16 -102 -17q-139 0 -263 146q-88 106 -149 272l-39 106l-8 45l88 66v-16q0 -14 4 -27l37 -115q43 -135 127 -254q100 -143 211 -143q63 0 98 49 q31 43 31 109q0 51 -19 106q-27 74 -59 121l-53 78q-16 25 -31 35l489 2v260h-1044z" />
<glyph unicode="u" horiz-adv-x="1007" d="M0 973v84h1036v-84h-168v-973h-108v608h-383v-176l-2 -29q-2 -12 -4 -14l-17 -14l-22 -4q-12 0 -45 26l-76 80q-35 37 -66 90q-20 33 -24 56q0 39 33 59l18 6l25 2l563 2v281h-760z" />
<glyph unicode="v" horiz-adv-x="1179" d="M8 489l84 56l64 -113l51 -76q125 -186 262 -186q96 0 145 115q14 33 15 69q0 49 -17 84q-16 55 -72.5 87t-119.5 32h-35q-23 0 -43 -8l-10 -4l-13 -2l-34 78q55 0 88 8q96 25 145 102q23 39 23 82q0 37 -9 61q-12 55 -69 82q-33 14 -72 15q-53 0 -115 -39 q-27 -18 -43 -33l-32 -31l-41 -43l-80 64q2 8 22 29l68 55q100 82 229 82q100 0 174 -76q63 -66 64 -166q0 -133 -117 -195l10 -2l19 -4q18 -6 24 -10l35 -16l19 -11l20 -8l23 -12l22 -8l47 -17l54 -4l41 2l71 19l27 10v416h-197v84h449v-84h-148v-973h-104v465l-31 -8 l-31 -6l-26 -5h-17l-36 3l-64 18l-22 10l6 -20l6 -15l10 -47l4 -45q0 -219 -209 -256q-25 -4 -57 -4q-82 0 -163 47t-161 142q-133 156 -133 210z" />
<glyph unicode="w" horiz-adv-x="4" d="M-463 -227q0 88 74 161q78 66 172 66q176 0 344 -193q53 -59 82 -114l29 -53l30 -56l-92 -49q0 25 -26 72q-8 14 -41 63q-20 33 -37 54q-70 96 -138.5 140t-146.5 44q-63 0 -93 -39t-38 -102q0 -90 72 -121q14 -6 51 -11l33 5l34 14l15 8l16 10l55 -84l-26 -12 q-23 -10 -66 -18l-65 -7q-96 0 -167 63.5t-71 158.5z" />
<glyph unicode="x" horiz-adv-x="1071" d="M0 973v84h1098v-84h-230v-973h-108v973h-324v-584q-4 -20 -16 -31l-29 -8q-23 0 -63 25q-94 70 -150 164q-22 37 -22 65q0 16 4 23l12 10l18 2l23 2l119 2v330h-332z" />
<glyph unicode="y" horiz-adv-x="1232" d="M0 973v84h1249v-84h-170v-973h-106v621l-53 -15l-64 -31l-27 -18q-16 -12 -28 -27l-35 -41l-31 -49l-30 -59l-17 -47l-88 51l4 25l17 30l34 60l13 30q-14 41 -90 72l-70 29q-20 6 -64 10q-41 0 -77 -16q-29 -12 -60 -43q-55 -72 -55 -144q0 -156 176 -266l72 -45l104 -49 l-51 -86q-104 0 -277 178q-124 128 -124 274q0 125 83.5 205t217.5 80q55 0 105 -15.5t91 -45.5l56 -43q18 -14 20 -27l18 14l17 13l39 26l28 19l47 16l52 14l20 2l27 5v266h-973z" />
<glyph unicode="z" horiz-adv-x="10" d="M-801 80l570 356v-84l-500 -352z" />
<glyph unicode="{" horiz-adv-x="641" d="M20 406q0 47 23 88t70 88l39 30l53 37q-16 8 -41 33l-41 63q-16 25 -27 62l-8 61q0 86 61.5 135.5t151.5 49.5t160.5 -51.5t70.5 -145.5q0 -57 -38 -108q-10 -10 -33 -35l-31 -27l-43 -29l19 -8l18 -2l63 -10l72 -2l82 2q37 0 64 10l59 21q33 10 67 34v-94l-71 -33 l-58 -16l-63 -10l-80 -2l-78 6l-98 20l-43 11l-55 18q-14 0 -33 -14l-47 -37q-76 -72 -76 -154q0 -53 21 -90q14 -29 49 -49l55 -22l72 -7h41l10 4l-4 9v32l6 50l18 32q16 16 29 19l39 8q27 0 43 -6t35 -27l20 -35l8 -41l-6 -34l-14 -27q-6 -10 -25 -20l-34 -11l22 -39 l31 -32l28 -27l43 -31l-88 -61l-18 14l-41 41l-29 43l-10 19l-10 20l-8 25l-21 -9l-14 -2l-37 -8l-29 -2q-53 -4 -114 19q-102 37 -156 141q-20 55 -21 113zM193 864q0 -70 47 -123l18 -20l31 -23q25 8 39 17l28 16q68 51 68 133q0 23 -8.5 40.5t-26.5 33.5l-39 20l-43 9 q-29 0 -45 -9l-37 -18q-16 -12 -24 -33zM600 973v84h51v-84h-51z" />
<glyph unicode="|" horiz-adv-x="1204" d="M0 973v84h1217v-84h-150v-973h-106v297q-23 -55 -207 -139q-100 -47 -197 -60q-31 -4 -61 -4q-190 0 -263 146q-14 43 -14 77q0 37 8 64q6 37 23 55l12 15l19 18q-41 0 -103 66q-37 37 -47 92q-2 10 -2 35q0 98 90 141l37 8l55 6l264 2v154h-575zM231 653q0 -41 33 -82 l43 -41q18 -12 37 -12l14 4l11 4l55 19l37 6h76l59 -4l37 -82l-12 -2h-70l-12 2q-131 0 -170 -39q-45 -41 -45 -104q0 -68 55 -105q31 -20 59 -31l70 -8q133 0 303 109q61 39 80 51q57 41 70 63v572h-285v-242h-332q-33 0 -47 -4q-39 0 -57 -29z" />
<glyph unicode="}" horiz-adv-x="1007" d="M0 973v84h1004v-84h-220v-281h-399q-33 0 -58.5 -8t-44 -24.5t-26.5 -47.5l-8 -65q0 -160 180 -234q53 -16 113 -16l20 2l31 4l37 6l-2 19q0 16 10 37q31 113 111 112q66 0 86 -59l6 -37q0 -49 -29 -94q-16 -25 -39 -39q-14 -6 -45 -10l8 -37l6 -25l15 -59l22 -70l8 -20 l7 -21l6 -18l10 -43l4 -35q0 -20 -4 -29l-10 -22l-19 -17l-28 -10l-60 176l-30 -26q-25 -20 -66 -43q-55 -29 -112.5 -46.5t-110.5 -17.5q-92 0 -180.5 67.5t-88.5 168.5q0 72 50 120q57 57 122 66l-40 35l-27 33q-29 37 -53 88q-16 49 -17 94q0 115 58.5 169t146.5 54 l332 2v201h-676zM213 102q0 -57 47 -100q18 -16 51 -29q16 -6 62 -10q47 0 98 17q37 10 109 45l65 41q27 20 31 28l-33 133l-25 -6l-51 -4h-22l-35 2l-154 17l-59 -7q-53 -16 -74 -63q-10 -23 -10 -64z" />
<glyph unicode="~" horiz-adv-x="10" d="M-315 -121l92 45l223 -297l-43 -47z" />
<glyph unicode="&#xa1;" horiz-adv-x="24" d="M-690 1470l106 3q0 -96 63.5 -154.5t160.5 -58.5q141 0 202 118q16 43 17 92l104 3q0 -117 -94 -207q-45 -45 -98 -64q-59 -20 -133 -20q-141 0 -223.5 77.5t-104.5 210.5zM-424 1432v112h121v-112h-121z" />
<glyph unicode="&#xa2;" horiz-adv-x="6" d="M-1077 1495l71 78l420 -516h-67z" />
<glyph unicode="&#xa3;" horiz-adv-x="1294" d="M0 973v84h1368v-84h-199v-973h-108v973h-537v-293q0 -92 -84 -135l-73 -21l-95 -6l50 -108l49 -76q55 -86 152.5 -135t201.5 -49q135 0 240 79l90 93v-107q-25 -31 -60 -59q-6 -4 -34 -21l-46 -26l-96 -33q-55 -10 -102 -10q-88 0 -148 16q-150 41 -258 176 q-78 98 -118 193l-35 81l-58 166l93 50l34 -115l13 -12l12 -9l33 -14l39 -4l41 6q39 12 49 47l6 39v287h-420zM696 594q0 82 57.5 144.5t139.5 78.5q20 4 47 4l45 -6l47 -16l25 -74l-47 12l-52 6q-39 0 -61 -10q-53 -8 -86 -69q-10 -27 -10 -66l6 -61q12 -47 49 -68l39 -8 q51 0 86 31l41 36l33 50v-121l-6 -27l-9 -16q-25 -31 -71 -41q-10 -2 -37 -2q-147 0 -219 131q-16 43 -17 92zM715 233l241 162l17 -78l-174 -143z" />
<glyph unicode="&#xa4;" horiz-adv-x="450" d="M33 88h270v-53h-197v-144l29 -32l27 6l16 2l19 2h28l45 -64l-67 -6l-60 -18q-49 -23 -57 -66v-8q2 -10 4 -12l4 -8l8 -11q16 -16 35 -24l45 -8q59 0 124 31.5t69 45.5v-88l-21 -12l-37 -18l-47 -17l-39 -10q-53 0 -103 31t-71 78q-12 29 -16 65l2 29l12 26q8 16 21 25 l30 18l-73 60v180z" />
<glyph unicode="&#xa5;" horiz-adv-x="1179" d="M0 973v84h1192v-84h-148v-973h-108v449l-41 -13l-41 -2l-35 2l-33 6q-27 4 -36 11l-33 16q-8 -39 -35 -113l-16 -49q-90 -154 -267 -153q-111 0 -278 92q-31 16 -66 49l70 78q4 -12 27 -31l63 -43q49 -33 97 -49.5t87 -16.5q94 0 154 76q39 53 53 133q4 23 4 50 q0 166 -116 223q-41 18 -86 18q-20 0 -41 -8l-45 -18l-21 -13l-25 -16l-71 82l39 14l28 14l72 25l55 8q158 0 252 -137q20 -29 31 -57l31 -80l18 -8l19 -7l32 -12l29 -2q68 -4 125 33v422h-936z" />
<glyph unicode="&#xa6;" />
<glyph unicode="&#xa7;" horiz-adv-x="450" d="M33 88h270v-53h-197v-144l29 -32l27 6l16 2l19 2h28l45 -64l-67 -6l-60 -18q-49 -23 -57 -66v-8q2 -10 4 -12l4 -8l8 -11q16 -16 35 -24l45 -8q59 0 124 31.5t69 45.5v-88l-21 -12l-37 -18l-47 -17l-39 -10q-53 0 -103 31t-71 78q-12 29 -16 65l2 29l12 26q8 16 21 25 l30 18l-73 60v180z" />
<glyph unicode="&#xa8;" horiz-adv-x="440" d="M-260 1495l76 78l415 -516h205v-84h-147v-973h-109v973h-180v84h135z" />
<glyph unicode="&#xa9;" horiz-adv-x="440" d="M-416 1327l76 84l395 -354h101l-344 463l96 53l323 -516h205v-84h-147v-973h-109v973h-180v84z" />
<glyph unicode="&#xaa;" horiz-adv-x="24" d="M-911 -293l340 369h110l322 -369h-121l-252 313l-276 -313h-123z" />
<glyph unicode="&#xab;" horiz-adv-x="663" d="M-4 973v84h760v-84h-760zM113 625q20 12 63 34l178 74l103 37q35 12 63 12q55 0 187 -133l141 -143v-119l-496 -295l-63 92l508 265l-117 112q-121 117 -170 117q-74 0 -197 -64l-137 -71z" />
<glyph unicode="&#xac;" />
<glyph unicode="&#xad;" horiz-adv-x="344" d="M104 0v135h144v-135h-144z" />
<glyph unicode="&#xae;" horiz-adv-x="440" d="M-260 1495l76 78l415 -516h205v-84h-147v-973h-109v973h-180v84h135z" />
<glyph unicode="&#xaf;" />
<glyph unicode="&#xb0;" />
<glyph unicode="&#xb1;" horiz-adv-x="24" d="M-383 1374q0 86 66.5 135.5t156.5 49.5l60 -7l55 -18l-2 -82l-14 4l-15 6l-39 8l-43 5q-61 0 -97 -42t-36 -104q0 -47 17.5 -97t48.5 -91l28 -39l39 -47l-78 2q-18 12 -28 28l-47 74q-6 8 -27 55l-27 58q-18 55 -18 102zM-176 1233v115h125v-115h-125z" />
<glyph unicode="&#xb2;" />
<glyph unicode="&#xb3;" horiz-adv-x="1204" d="M0 973v84h1200v-84h-276v-268h-437l-12 -17l-2 -14l2 -23q4 -16 10 -24l17 -33l30 -43l31 -37l31 -25l31 -18l30 -4h13l8 2l141 41l51 12l35 4q47 0 82 -55l16 -51l7 -58q0 -78 -23 -139q-45 -123 -168 -168q-55 -20 -125 -20q-147 0 -299 119q-129 100 -217 221l-63 86 l-21 41l80 78q4 -20 21 -45q8 -18 55 -82q29 -43 96 -123l100 -97q47 -45 131 -83q61 -31 117 -31q92 0 151.5 63.5t59.5 175.5q0 68 -53 68q-16 0 -47 -10q-39 -6 -80 -27l-43 -14l-29 -4q-100 0 -197.5 126t-97.5 205l6 39q6 20 23 27l35 14l45 4l354 2v185h-819z M1044 571v121h127v-121h-127z" />
<glyph unicode="&#xb4;" horiz-adv-x="1179" d="M0 973v84h1192v-84h-148v-973h-108v449l-41 -13l-41 -2l-35 2l-33 6q-27 4 -36 11l-33 16q-8 -39 -35 -113l-16 -49q-90 -154 -267 -153q-111 0 -278 92q-31 16 -66 49l70 78q4 -12 27 -31l63 -43q49 -33 97 -49.5t87 -16.5q94 0 154 76q39 53 53 133q4 23 4 50 q0 166 -116 223q-41 18 -86 18q-20 0 -41 -8l-45 -18l-21 -13l-25 -16l-71 82l39 14l28 14l72 25l55 8q158 0 252 -137q20 -29 31 -57l31 -80l18 -8l19 -7l32 -12l29 -2q68 -4 125 33v422h-936z" />
<glyph unicode="&#xb5;" />
<glyph unicode="&#xb6;" horiz-adv-x="860" d="M0 973v84h856v-84h-135v-314l41 35l57 39l62 31l51 10v-90l-80 -20q-33 -12 -55 -39q-31 -29 -45 -60l-15 -30l-16 -41v-494h-109v408q-20 -25 -45 -37l-47 -23l-51 -14l-51 -4q-51 -4 -107 18q-104 43 -143 141q-20 51 -21 109v375h-147zM252 584q0 -92 47 -140 q14 -14 43 -26l66 -8q88 0 145 57q49 49 59 102v404h-360v-389z" />
<glyph unicode="&#xb7;" horiz-adv-x="739" d="M55 190l74 74q0 -12 29 -41l82 -67q119 -98 221 -99h39q25 6 37 9q90 25 122 88q20 39 21 79q0 35 -33 86q-43 63 -110 119l-136 111l-131 115q-78 68 -111.5 122t-33.5 97q0 86 53 129t141 43l429 2v-80l-433 -4q-20 0 -34 -8l-31 -19l-23 -28l-8 -31q0 -43 148 -168 l276 -232q66 -53 113 -131q37 -61 37 -106q-1 -123 -95 -197q-66 -51 -159 -65q-29 -4 -70 -4q-106 0 -215 61q-84 47 -109 64q-74 49 -90 81z" />
<glyph unicode="&#xb8;" horiz-adv-x="587" d="M0 973v84h596v-84h-176l41 -55q18 -27 33 -66q6 -20 10 -61q0 -139 -119 -199l-51 -17l-70 -14l6 -18l9 -17l6 -14l6 -12q31 -61 98 -101q57 -33 127 -32q86 0 160 49q37 25 61.5 52.5t42.5 61.5v-145q-30 -31 -57 -43l-64 -29l-34 -10l-33 -8q-25 0 -37 -4l-33 -2 q-143 -8 -262 96q-61 53 -91 117.5t-30 150.5l17 -4q29 -4 37 -8h20l70 6q70 14 94 74q14 33 14 74q0 33 -12 60.5t-39 66.5l-23 22l-28 27z" />
<glyph unicode="&#xb9;" />
<glyph unicode="&#xba;" horiz-adv-x="911" d="M0 973v84h911v-84h-143v-264h-487q-18 0 -29 -11l-8 -20l8 -33q12 -25 29 -43l16 -27l25 -28l4 -8l10 -9l596 2v-83h-463q-47 0 -80 -17q-27 -8 -65 -43q-59 -51 -60 -139q0 -135 238 -197l67 -8q14 -2 52 -8l118 -14l-34 -74l-46 -2q-37 -2 -178 26q-47 10 -73 21 q-156 43 -222 143q-35 53 -34 125q0 51 32 103q16 27 39 49l49 49l-43 45l-26 35q-39 49 -56 88q-10 29 -16 76l6 36q6 14 23 29l30 16l37 7l432 2v176h-659z" />
<glyph unicode="&#xbb;" horiz-adv-x="1132" d="M29 479v88h1050v-88h-1050zM492 88v139h141v-139h-141zM492 827v142h141v-142h-141z" />
<glyph unicode="&#xbc;" horiz-adv-x="491" d="M164 526q0 242 78 463q66 186 147 311l55 84q16 25 27 29l121 2q-53 -55 -113 -153q-25 -41 -51 -99q-20 -41 -55 -123l-45 -129q-12 -41 -31 -127l-18 -129l-7 -129q-4 -92 21 -227q31 -178 129 -383q49 -102 86 -156l84 -120h-121l-22 30l-56 90l-82 156q-12 23 -35 80 q-12 29 -30 84q-41 121 -61.5 232.5t-20.5 213.5z" />
<glyph unicode="&#xbd;" horiz-adv-x="516" d="M16 -360l41 61l41 59q16 25 43 74q12 20 41 80l70 158q35 78 63 231q20 115 21 223q0 248 -82 469q-41 109 -107 234q-25 43 -47 74l-59 81q-10 14 -21 25l-4 4l115 2l25 -31l55 -84q18 -29 43 -73q125 -236 166 -467q20 -117 20 -234q0 -167 -43 -333 q-59 -225 -186 -431l-57 -92q-10 -16 -19 -26q0 -2 -4 -4h-115z" />
<glyph unicode="&#xbe;" horiz-adv-x="1155" d="M37 276v89h1050v-89h-1050zM37 680v88h1050v-88h-1050z" />
<glyph unicode="&#xbf;" horiz-adv-x="415" d="M68 551l20 16l18 13l37 30l25 31l16 31l15 41l10 41l4 32v431q0 45 18 94q37 98 119 137q43 20 88 20l27 -4l35 -6l168 2v-63h-164q-41 0 -80 -17q-78 -31 -111 -98q-14 -37 -14 -72l-4 -456q0 -20 -8 -47q-2 -16 -17 -52l-22 -37l-109 -65l21 -16l16 -9q23 -10 37 -28 l27 -23l8 -14l12 -17l19 -51l14 -55l6 -43v-418q0 -86 55 -129q41 -33 105 -41q14 -2 45 -2h164v-80h-168q-207 0 -264 140q-23 51 -23 108v428q0 70 -39 139.5t-106 108.5z" />
<glyph unicode="&#xc0;" horiz-adv-x="788" d="M104 -293h160q94 0 146 43q55 35 55 129l4 461l16 53l21 51l26 37l25 21l35 26l14 9l23 14l-105 70l-22 26l-17 41l-16 53l-4 45v426q0 76 -61.5 129.5t-139.5 53.5l-160 2v63h164l17 2l14 4l12 2h19q92 0 160.5 -79.5t68.5 -174.5l2 -464q2 -23 8 -37l13 -37l16 -33 l10 -16l31 -31l20 -16l17 -13l24 -16q-61 -30 -100 -98q-18 -31 -33 -76l-8 -76v-426q0 -119 -88 -186q-55 -43 -141 -58q-25 -4 -62 -4h-164v80z" />
<glyph unicode="&#xc1;" horiz-adv-x="911" d="M0 973v84h911v-84h-139v-973h-108v444l-512 -444l-80 72l344 272q-119 0 -183 78q-35 39 -54 92t-19 113v346h-160zM264 612q0 -119 115 -180q18 -6 61 -10q35 0 68 16q55 29 80 51l30 27l41 41v416h-395v-361z" />
<glyph unicode="&#xc2;" />
<glyph unicode="&#xc3;" horiz-adv-x="911" d="M0 973v84h586l-41 59l-39 74l-39 98q-12 47 -12 86q0 84 64.5 134.5t158.5 50.5l59 -7l56 -18v-82l-17 4l-14 6l-41 8l-41 5q-88 0 -125 -84l-8 -62q0 -53 24 -115q6 -14 21 -45l33 -57l39 -57l260 2v-84h-232v-268h-428l-6 -9l-6 -10l2 -29l8 -22l19 -31l30 -39l60 -65 l32 -27l29 -6q41 0 100 18q14 4 54 19l49 14l41 4q49 0 82 -45q12 -18 22 -51l8 -55q0 -66 -22 -129q-29 -82 -109 -144q-27 -20 -51 -37q-53 -27 -98 -26l22 -25l21 -14l45 -39l37 -33l82 -53l57 -35l-55 -88l-31 21l-22 14q-27 16 -62 47l-104 90l-52 51l-38 35l-17 21 h-72q-23 2 -67 10q-12 2 -31 10q-96 33 -96 131l6 35q6 18 21 33l28 20l39 8q70 0 150 -79l26 -35l37 -45q39 0 72 10q33 4 51 16q133 59 125 197l-2 39q-2 25 -3 34t-11 15l-21 8l-33 -8l-67 -25l-78 -22l-57 -8q-84 0 -180.5 132t-96.5 195l6 31l23 29l33 20l34 8l357 2 v185h-584z" />
<glyph unicode="&#xc4;" horiz-adv-x="1097" d="M0 973v84h1122v-84h-198v-973h-109v313l-72 -41l-65 -28l-96 -31q-47 -10 -86 -10q-57 0 -105 16q-115 39 -162 123q-20 45 -20 92q0 84 57 141l23 23l35 29l-50 20l-32 21q-82 51 -82 149l4 41l14 47l21 41l20 25zM264 825q0 -59 53 -102q20 -16 45 -29l50 -8l176 2 l37 -76h-113q-31 0 -66 -14q-131 -41 -131 -164q0 -68 58 -106q29 -20 63 -33l76 -8q49 0 123 24q53 18 82 37q8 4 28 19l70 47v559h-467l-24 -23l-17 -16l-33 -53q-6 -16 -10 -56z" />
<glyph unicode="&#xc5;" horiz-adv-x="1376" d="M0 973v84h1397v-84h-649l24 -35l16 -25q18 -27 33 -71q6 -35 10 -68q0 -125 -114 -192l59 -41l15 -17l24 -26l4 -6l8 -7l37 39l31 31l43 31l43 22l41 15l43 4q92 0 157.5 -71t65.5 -163q0 -45 -13 -92t-40 -100q-61 -125 -123 -187l-96 58l49 57l37 47q86 111 86 221 l-6 54l-19 45q-31 51 -102 51q-59 0 -135 -76l-25 -33l-29 -45v-31l2 -14q0 -121 -43 -192q-72 -121 -235 -121q-164 0 -285 160q-98 131 -149 297l-35 114q-8 43 -6 51l88 68l37 -158q39 -166 121 -288q55 -82 107 -119t118 -37q102 0 143 61l21 54l8 75q0 53 -10 80 q-4 37 -27 68q-39 70 -115 69l-159 2l-41 89h188l37 12q16 6 27 16q63 49 63 133q0 55 -53 129l-23 25l-30 35z" />
<glyph unicode="&#xc6;" horiz-adv-x="440" d="M0 973v84h188l-6 6l-6 27l-18 67l-6 57q0 127 88 215.5t231 88.5q80 0 174 -35q117 -43 193 -99q18 -10 75 -55q29 -23 95 -80l-9 17l-2 14l-8 43l-2 51q-4 127 129 172q37 12 84 13l66 -7l57 -18v-82l-16 4l-13 6l-39 8l-38 5q-61 0 -101.5 -40t-40.5 -106q0 -49 19 -92 q23 -57 51 -96l29 -39l43 -47l-121 2l-52 45l-49 49q-41 41 -72.5 64.5t-48.5 33.5l-122 82q-66 43 -154 74q-74 25 -133 25q-47 0 -82 -17q-76 -25 -117 -119q-16 -55 -14 -96l2 -41l12 -45l15 -41l8 -16l147 2v-84h-147v-973h-109v973h-180z" />
<glyph unicode="&#xc7;" horiz-adv-x="442" d="M0 973v84h186l-8 18l-12 51l-12 56l-2 32q-6 92 48 169t142 112q61 23 129 23q154 0 350 -119q82 -49 144 -101l147 -122l59 -62l62 -59l-137 2l-52 45l-49 49q-41 41 -72.5 64.5t-48.5 33.5l-122 82q-66 43 -154 74q-74 25 -133 25q-47 0 -82 -17q-76 -25 -117 -119 q-16 -55 -14 -96l2 -41l10 -47l12 -39l9 -16l178 2v-84h-174v-973h-109v973h-180zM1137 1255v134h141v-134h-141z" />
<glyph unicode="&#xc8;" horiz-adv-x="440" d="M-428 1223q-4 37 18 100q59 174 228 174q74 0 151 -55q98 -70 162 -166l59 -92l74 -129l195 2v-84h-172v-973h-107v973h-180v84h156q2 2 2 8q0 49 -164 238q-100 115 -172 114q-68 0 -103 -51q-23 -35 -34 -86q-2 -14 -2 -39t8 -53q12 -41 22 -62l27 -51l14 -20l-119 2 l-24 33l-21 40l-14 46zM276 1184v133h142v-133h-142z" />
<glyph unicode="&#xc9;" horiz-adv-x="440" d="M0 973v84h188l-6 6l-6 27l-18 67l-6 57q0 127 88 215.5t231 88.5q80 0 174 -35q117 -43 193 -99q18 -10 75 -55q29 -23 95 -80l-9 17l-2 14l-8 43l-2 51q-4 127 129 172q37 12 84 13l66 -7l57 -18v-82l-16 4l-13 6l-39 8l-38 5q-61 0 -101.5 -40t-40.5 -106q0 -49 19 -92 q23 -57 51 -96l29 -39l43 -47l-121 2l-52 45l-49 49q-41 41 -72.5 64.5t-48.5 33.5l-122 82q-66 43 -154 74q-74 25 -133 25q-47 0 -82 -17q-76 -25 -117 -119q-16 -55 -14 -96l2 -41l12 -45l15 -41l8 -16l147 2v-84h-147v-973h-109v973h-180zM1196 1233v115h121v-115h-121z " />
<glyph unicode="&#xca;" horiz-adv-x="440" d="M-428 1223q-4 37 18 100q59 174 228 174q74 0 151 -55q98 -70 162 -166l59 -92l74 -129l195 2v-84h-172v-973h-107v973h-180v84h156q2 2 2 8q0 49 -164 238q-100 115 -172 114q-68 0 -103 -51q-23 -35 -34 -86q-2 -14 -2 -39t8 -53q12 -41 22 -62l27 -51l14 -20l-119 2 l-24 33l-21 40l-14 46zM158 1415q0 84 64.5 134t158.5 50l59 -6l56 -18v-82l-17 4l-14 6l-41 8l-41 5q-88 0 -125 -84l-8 -62q0 -49 18.5 -98t46.5 -90l27 -39l41 -47l-76 2q-12 0 -31 28l-47 74q-72 113 -71 215z" />
<glyph unicode="&#xcb;" horiz-adv-x="540" d="M16 866q0 92 57.5 149.5t149.5 57.5q129 0 174 -98q14 -31 15 -62v-61h-93v63q0 82 -92 82q-45 0 -75 -39l-21 -40l-6 -48q0 -43 10 -76.5t35 -66.5q31 -43 57 -70q25 -18 49 -22l70 20l80 9l37 -2l41 -5l45 -77l-137 -7q-57 -2 -80 -10q-127 -29 -127 -149 q0 -90 108 -131l64 -9q121 0 252 97l45 41l53 57v-109q0 -16 -29 -36l-73 -52q-119 -82 -269 -82q-98 0 -181 62.5t-83 157.5q0 70 51 133l21 20l33 27q-31 14 -62 47q-61 66 -86 113q0 2 -16.5 41.5t-16.5 74.5zM508 973v84h41v-84h-41z" />
<glyph unicode="&#xcc;" horiz-adv-x="788" d="M0 973v84h801v-84h-164v-213h-334l-33 -6l-22 -2q-53 -14 -55 -74q-2 -55 40 -94l27 -25l21 -8l92 29l8 -2l10 2h17l14 2h31l8 -2h10l18 -2h15l49 -86h-18l-21 4h-12l-13 2h-57q-18 0 -43 -9l-57 -18q-29 -16 -48.5 -49t-19.5 -72q0 -55 21 -92q14 -31 49 -53l57 -23 l72 -8l35 2l22 6l-4 8v39q0 29 4 43l15 35q12 20 34.5 31.5t51.5 11.5q68 0 86 -63l6 -41l-6 -41l-19 -35q-14 -16 -29 -25l-34 -8l106 -184l-90 -49l-92 209l-8 -7l-19 -2l-28 -4h-31q-123 0 -197 43q-55 31 -84 84q-27 47 -26 127q0 25 4 37l14 41l33 49l12 21l-39 26 l-26 21q-66 66 -66 129q0 86 43 119q29 20 70 32q25 8 59 9l272 2v133h-532z" />
<glyph unicode="&#xcd;" horiz-adv-x="983" d="M0 973v84h999v-84h-219v-213h-432q-96 0 -96 -111q0 -88 100 -147q92 -55 197 -56q92 0 168 31q25 8 49 25l35 22l39 33l80 -61l-76 -52l-64 -32v-232h-411q-23 0 -39.5 -7t-36.5 -28l-23 -34l-6 -41q0 -137 201 -185q45 -10 102 -10q70 0 138 31l94 43q35 16 53 35 l72 -64l-62 -43l-86 -43q-27 -12 -91 -25.5t-114 -13.5q-90 0 -174 19q-141 31 -207 141q-31 51 -30 119q0 119 100 162q33 14 64 14l356 2v133l-47 -10l-33 -2h-41q-166 0 -276 61q-66 37 -101 93.5t-35 121.5q0 96 54.5 140.5t134.5 44.5l344 2v137h-680z" />
<glyph unicode="&#xce;" horiz-adv-x="983" d="M0 973v84h999v-84h-219v-213h-432q-104 0 -104 -111q0 -43 20 -84q45 -74 166 -108q72 -14 119 -15q86 0 166 29q14 4 47 25l33 20l36 35l76 -64l-63 -43l-64 -32v-232h-465q-37 0 -71 -35l-23 -34l-8 -41q0 -98 113 -158q37 -20 112 -37q57 -14 107 -10l84 6l69 18 q82 23 82 103q0 39 -28 76l-13 8l-18 10l67 66l29 -35l23 -23q45 -45 45 -94q0 -164 -207 -203q-66 -12 -129 -12q-176 0 -310.5 73.5t-134.5 215.5q0 111 103 162q37 14 65 14l408 2v133q-39 -12 -78 -18l-78 -5q-72 -4 -145 17q-154 41 -209 143q-31 55 -31 127 q0 49 15 80q20 59 102 90q37 14 80 15l344 2v137h-680z" />
<glyph unicode="&#xcf;" horiz-adv-x="1079" d="M0 973v84h1075v-84h-164v-234h-458l-17 -6l-4 -10l2 -12l4 -9l25 -30l41 -41l28 -25l31 -16l35 -8l39 -2l35 2l45 6l92 14l51 4q70 6 107 -35q12 -16 18 -43l6 -55q0 -115 -119 -186q-23 -14 -104 -41q-55 -12 -117 -13h-57q-18 4 -27 5l-75 16l-29 8l-31 12l31 -51 l26 -35q27 -35 64 -65q27 -16 55 -21l43 2l162 33l59 8q27 0 46 -10q41 -8 71 -63q6 -14 10 -45q0 -55 -28 -109q-61 -115 -246 -141q-29 -4 -70 -4q-106 0 -206 30q-121 39 -201 99l-74 55l-86 74l64 73q41 -41 81 -73q10 -8 70 -47q188 -123 352 -123q57 0 124 25.5 t98 68.5q16 27 20 59q-4 27 -12 35l-19 8l-26 4l-37 -8l-164 -33l-51 -2q-76 -2 -163 79t-87 173v9l2 12v8l4 10l-65 41l-103 72l-33 24l-32 23l-31 25l59 86l86 -78l70 -53q74 -57 186 -99q88 -33 162 -33h33q29 4 80 21q8 4 35 16q98 45 98 119q0 27 -19 37l-22 6l-29 2 l-43 -4l-63 -14l-70 -15l-55 -4q-51 -4 -156 86q-51 41 -84 84q-25 41 -24 74l6 41q6 18 22 29l33 16l39 6l381 2v154h-805z" />
<glyph unicode="&#xd0;" />
<glyph unicode="&#xd1;" horiz-adv-x="1304" d="M0 973v84h1300v-84h-569v-309l37 34l25 21q61 51 143 51q115 0 201 -78q80 -72 80 -186q0 -119 -107 -250l-45 -55l-61 -68l-89 68q14 4 33 22q90 90 133 193q23 55 23 98q0 57 -21 100q-37 72 -135 72q-84 0 -155 -90q-27 -35 -44.5 -79t-17.5 -79v-438h-106v303 q-76 -76 -191 -76q-117 0 -206 80t-89 203t84 199q61 55 144 73q27 6 55 6l55 -6q37 -8 55 -16v-86l-49 16l-45 6q-74 0 -131 -53q-18 -18 -41 -61q-14 -37 -14 -74q0 -88 51 -145q25 -31 59.5 -47.5t69.5 -16.5q74 0 150 76q43 43 43 82v510h-625zM352 -219q0 143 127 205 q43 14 84 14h168v-80h-139q-53 0 -90 -37q-20 -20 -33 -45l-8 -51q0 -37 14 -63q14 -35 70 -68q41 -23 102 -23q94 0 162 60l51 -80l-35 -21l-28 -14q-92 -35 -168 -35q-55 0 -99 17q-102 29 -155 125q-23 41 -23 96z" />
<glyph unicode="&#xd2;" horiz-adv-x="1011" d="M8 866q-6 88 57.5 139.5t149.5 51.5q139 0 182 -105q14 -37 15 -75v-277h321v373h-201v84h508v-84h-198v-973h-109v512h-321v-186l-2 -13l-17 -14l-20 -4q-20 0 -54 27q-53 39 -90 81l-77 93q-23 35 -27 55l6 16l16 17l19 10l14 4l123 2v287q0 39 -26.5 64.5t-65.5 25.5 q-18 0 -41 -8l-35 -19l-22 -32l-9 -44l2 -28l11 -31l4 -14l10 -19l-102 2l-9 15l-2 12l-8 29z" />
<glyph unicode="&#xd3;" horiz-adv-x="1007" d="M-188 748q47 6 71 16l56 14l145 25q61 10 131 10q90 0 127 -10q123 -16 172 -90q27 -41 27 -90q0 -115 -88 -166q-25 -14 -86 -33q-57 -10 -115 -10q53 -188 235 -189q45 0 93 19q59 23 98 57l35 31l43 47v594h-756v84h1008v-84h-144v-973h-108v260q-8 -12 -17 -16 l-34 -23q-111 -72 -230 -71q-152 0 -242 108q-104 121 -104 244l47 -13l60 -4l73 7q51 4 89 38.5t38 83.5q0 63 -65 95l-72 20l-86 8l-94 -6l-105 -18q-55 -10 -123 -33q-53 -14 -77 -27z" />
<glyph unicode="&#xd4;" horiz-adv-x="1079" d="M0 973v84h1075v-84h-164v-185h-458l-15 -6l-4 -6l2 -10l13 -14l18 -21l29 -24l39 -27l28 -18l25 -11l24 -2l37 2l43 6l107 19l55 6l57 -6q80 -23 80 -123q0 -92 -67 -145l-29 -23l-39 -23v-206h-453q-23 0 -38 -9l-35 -18l-23 -29l-8 -34q0 -127 127 -172l51 -19l76 -18 q0 23 -4 34l-2 31q-6 78 55 121q51 35 133 35q49 0 81 -7.5t65 -27.5q55 -27 63 -98q0 -100 -90 -142q-78 -35 -190 -34q-223 0 -340 79q-127 86 -127 230q0 96 106 135q33 12 66 12l383 2v97l-13 -5l-28 -2l-33 -2h-23l-73 2q-33 0 -68 11l-70 18l-71 33l-94 47 q-41 20 -58 35l-76 53l-65 64l59 77l82 -77l70 -52q176 -129 352 -129q41 0 74 9q45 8 74 26q98 35 98 121q0 27 -19 37l-22 6l-29 2l-43 -4l-63 -14l-70 -15l-55 -4q-41 -2 -111 37q-18 10 -47 31q-51 35 -78.5 71.5t-27.5 73.5l6 39q6 16 20 29l33 14l41 6l381 2v109h-805 zM643 -143h10l17 -2h10l10 -2h21q33 0 51 4q29 2 39 8q47 16 47 63q0 17 -8 25l-21 8q-16 0 -45 -12l-63 -39l-29 -21z" />
<glyph unicode="&#xd5;" />
<glyph unicode="&#xd6;" horiz-adv-x="759" d="M0 973v84h768v-84h-113v-260h-391l-14 -11l-4 -10l2 -20l10 -23l21 -35l36 -45l25 -26l27 -17l26 -8l35 -2l33 2q33 2 55 8l53 9l35 4q37 0 64 -19l32 -22l21 -9l53 -16l51 -4l58 6q18 4 51 21l8 4l10 10v-102l-16 -2h-14l-17 -3h-12l-29 -4h-57q-16 0 -25 4l-12 3 q-10 2 -12 4l-15 4l-12 8v-57q0 -104 -80 -175q-102 -88 -186 -88l94 -59l109 -47l-64 -80l-160 98l-36 27l-33 27l-19 18l-49 2h-69q-59 0 -95 47q-10 18 -14 55l6 31l19 31l26 18l33 9q20 0 31.5 -2.5t29.5 -12.5l29 -16l31 -23l20 -22l27 -33l70 14q37 8 51 17 q123 55 123 178q0 25 -4 31l-13 20l-18 12l-25 4l-35 -4l-94 -24l-28 -4l-46 6q-43 12 -92 53l-45 47q-90 94 -90 182q0 51 43 78l29 11l37 4l305 2v176h-549z" />
<glyph unicode="&#xd7;" />
<glyph unicode="&#xd8;" horiz-adv-x="1304" d="M0 973v84h1341v-84h-610v-309l37 34l25 21q61 51 143 51q115 0 201 -78q80 -72 80 -186q0 -119 -107 -250l-45 -55l-61 -68l-89 68q14 4 33 22q90 90 133 193q23 55 23 98q0 57 -21 100q-37 72 -135 72q-84 0 -155 -90q-27 -35 -44.5 -79t-17.5 -79v-438h-106v332 l-486 -324l-59 80l297 176l-70 19q-33 8 -49 22q-119 70 -119 205q0 117 86 195q66 59 146 75q29 6 57 6l53 -6q23 -2 51 -14v-86l-49 16l-45 6q-74 0 -131 -53q-18 -18 -41 -61q-14 -37 -14 -74q0 -111 115 -172q37 -14 65 -14q25 0 39 4l41 18l113 78v545h-625z" />
<glyph unicode="&#xd9;" horiz-adv-x="712" d="M0 973v84h805v-84h-805zM43 672v80h856v-80h-371q-70 0 -131 -51.5t-61 -131.5q0 -117 129 -266l53 -61l78 -76l-64 -78l-86 90l-61 74q-150 180 -149 317q0 59 26 101q4 8 19 28l51 52z" />
<glyph unicode="&#xda;" horiz-adv-x="516" d="M0 973v84h520v-84h-520zM68 565v86q12 -14 49 -30l94 -31l88 -19l82 -6l59 6l64 19l22 10l29 14v-102l-27 -14l-20 -9l-55 -16l-50 -4l-81 6q-31 2 -86 21l-101 32z" />
<glyph unicode="&#xdb;" horiz-adv-x="587" d="M129 518q0 94 57.5 154.5t149.5 60.5q55 0 88 -16q53 -20 86 -77.5t33 -119.5q0 -63 -31 -119q-35 -62 -90 -82q-39 -14 -86 -14q-102 0 -154 62q-18 20 -41 67q-12 37 -12 84z" />
<glyph unicode="&#xdc;" horiz-adv-x="759" d="M76 479l196 117l97 66l-43 28l-27 27q-72 72 -72 157q0 88 62.5 138.5t146.5 50.5q80 0 150 -51q49 -39 63 -99q2 -14 2 -39q0 -23 -4 -36l-10 -35q-6 -20 -21 -37l-24 -37l-25 -29l-35 -30l19 -13l18 -10l17 -10l18 -8l64 -35q16 -4 45 -23l231 -112v-99l-348 181 l-43 16l-68 35l-28 18l-150 -102l-41 -31l-59 -39l-68 -41zM324 874q0 -57 34 -92q45 -55 86 -59l29 20l21 19q49 45 51 104q0 29 -7.5 47.5t-27.5 38.5l-39 25l-43 8q-37 0 -74 -29l-22 -34z" />
<glyph unicode="&#xdd;" horiz-adv-x="1280" d="M0 973v84h1292v-84h-571v-305l20 18l43 31q63 45 123 45q82 0 151.5 -42t100.5 -114q20 -49 21 -100q0 -123 -101 -264l-37 -41l-69 -72l-88 72l53 39l39 36q94 106 94 238q0 66 -37 113q-45 51 -123 51q-35 0 -67 -23q-43 -29 -70 -69q-8 -8 -24 -39l-29 -53v-494h-109 v408l-436 -340l-76 71l316 213l-17 -4h-14l-45 2l-39 10l-51 25l-45 37l-27 35q-14 25 -18 41l-10 47l-3 53v375h-147zM252 584q0 -92 47 -140q14 -14 43 -26l66 -8q88 0 145 57q49 49 59 102v404h-360v-389z" />
<glyph unicode="&#xde;" horiz-adv-x="540" d="M104 920l89 292h118l-118 -292h-89zM307 915l84 293h125l-121 -293h-88z" />
<glyph unicode="&#xdf;" horiz-adv-x="563" d="M104 932l119 293h88l-84 -293h-123zM307 928l121 293h88l-88 -293h-121z" />
<glyph unicode="&#xe0;" horiz-adv-x="911" d="M0 973v84h911v-84h-143v-264h-487q-18 0 -29 -11l-8 -20l8 -33q12 -25 29 -43l16 -27l25 -28l4 -8l10 -9l592 -2l4 -528h-47l-2 279h-230v-119q-6 -16 -10 -21l-16 -4q-8 0 -27 17l-45 49l-41 53l-14 31l2 16q4 10 8 12l12 6l23 7l338 2l2 121h-416q-47 0 -80 -17 q-27 -8 -65 -43q-59 -51 -60 -139q0 -135 238 -197l67 -8q14 -2 52 -8l118 -14l-34 -74l-46 -2q-37 -2 -178 26q-47 10 -73 21q-156 43 -222 143q-35 53 -34 125q0 51 32 103q16 27 39 49l49 49l-43 45l-26 35q-39 49 -56 88q-10 29 -16 76l6 36q6 14 23 29l30 16l37 7 l432 2v176h-659z" />
<glyph unicode="&#xe1;" horiz-adv-x="1376" d="M0 973v84h1372v-84h-147v-973h-109v231q-135 -143 -321 -143q-190 0 -299 162h10l8 -2h21q104 0 139 63q14 27 14 60t-8 51t-29 31l-8 2l-8 4h-10q-10 2 -13 4l-243 2q-16 0 -41 -19q-14 -10 -41 -43q-18 -29 -31 -63l-8 -74q0 -88 102 -166q25 -20 84 -57l121 -59 q45 -16 74 -21l-76 -72q-33 -12 -211 99q-96 59 -149 131q-59 76 -54 141l6 78q2 35 23 57l27 31l53 53l-35 39l-23 33q-59 86 -59 154l6 36q6 14 23 29l30 16l37 7l432 2v176h-659zM242 672l6 -35q6 -20 22 -41l29 -35l25 -18l340 2l38 -19q18 -8 27 -16q68 -51 68 -127 q0 -84 -47 -131l-21 -21l-29 -20l33 -16l33 -13l31 -10l22 -2q55 0 113 27q70 33 106 77l35 43l43 62v594h-348v-264h-487q-18 0 -31 -13q-4 -4 -8 -24z" />
<glyph unicode="&#xe2;" horiz-adv-x="983" d="M0 973v84h999v-84h-143v-264h-575q-33 0 -39 -35q0 -27 10 -43l31 -51l41 -45l32 -21l27 8l55 15l66 12l55 4q55 4 141 -12q135 -27 183 -99q25 -39 24 -96q0 -72 -71 -96l-48 -10l-92 -15q-39 0 -57 -4q-90 -6 -90 -84q0 -59 55 -78l58 -18l63 -6l61 6q18 2 66 22l12 5 l17 10l43 -86q-29 -14 -93 -29q-47 -10 -102 -10q-129 0 -194 43q-90 45 -91 149q0 96 60 134q51 39 155 43h50l34 2h29l23 6l12 12l4 25q0 31 -19.5 50t-66.5 36l-72 12l-94 4q-61 2 -127 -16q-113 -35 -166 -123q-23 -37 -22 -92q0 -55 24 -121q14 -47 58 -99 q68 -82 109.5 -115.5t80.5 -37.5l-72 -80q-78 12 -211 188q-45 61 -71 129q-23 59 -23 136q0 80 35 127l35 47l55 55l-39 43l-26 35l-52 88q-12 33 -16 74l6 36q6 14 23 29l30 16l37 7l521 2v176h-748z" />
<glyph unicode="&#xe3;" horiz-adv-x="1404" d="M0 973v84h1409v-84h-149v-973h-107v205h-334v-113l-2 -22q-2 -10 -4 -13l-16 -12l-21 -4q-37 0 -117 82q-76 72 -84 119l3 16l10 12l16 6l25 7l80 2v172h-293q-100 0 -140 -119l-8 -72q0 -66 60 -133q47 -53 116 -90l113 -59q43 -16 72 -21l-76 -72q-49 0 -195.5 100.5 t-181.5 201.5q-12 35 -12 69l6 66q10 53 49 94l45 47l-39 43l-26 35l-52 86q-12 33 -16 74l6 36q6 14 23 29l30 16l37 7l432 2v176h-659zM246 674q0 -45 35 -84l32 -37q8 -6 27 -10l479 2v-260h334v688h-385v-264h-487q-29 0 -35 -35z" />
<glyph unicode="&#xe4;" horiz-adv-x="1452" d="M0 973v84h1460v-84h-571v-242l76 33q43 12 90 12q123 0 220 -75.5t97 -194.5q0 -78 -57 -195q-25 -51 -47 -84l-45 -65l-60 -84l-88 61q6 6 10 8q12 10 23 27l61 96q90 141 91 244q0 76 -49.5 124t-123.5 48q-66 0 -94 -10q-37 -6 -67 -25l-29 -22l-8 -19v-610h-105v664 h-256q-121 0 -178 -107q-14 -37 -14 -68q0 -123 104 -276l43 -63l62 -84l-88 -54l-66 90l-45 72q-53 86 -84 172q-27 76 -26 143q0 70 45 123l36 35l15 15l-289 2v88h741v221h-784z" />
<glyph unicode="&#xe5;" horiz-adv-x="897" d="M152 467q0 106 58 192t157 127q66 27 129 27q141 0 248.5 -100.5t107.5 -245.5q0 -135 -91.5 -232.5t-236.5 -97.5q-137 0 -254.5 94.5t-117.5 235.5zM256 401q0 -39 18 -73q12 -25 48 -58q27 -20 69 -41q37 -12 80 -12q80 0 154 57q68 51 104 132q27 55 27 116 q0 84 -56.5 140.5t-150.5 56.5q-119 0 -206 -95.5t-87 -222.5z" />
<glyph unicode="&#xe6;" horiz-adv-x="1007" d="M0 973v84h1004v-84h-220v-260h-399q-137 0 -137 -166q0 -160 180 -234q53 -16 113 -16l20 2l31 4l37 6l-2 19q0 16 10 37q31 113 111 112q66 0 86 -59l6 -37q0 -49 -29 -94q-16 -25 -39 -39q-14 -6 -45 -10l4 -27l14 -72l15 -45l24 -59l35 -55l21 -29l20 -23h-121l-37 84 l-24 60q-18 45 -27 80l-8 73l-424 -309l-63 88l376 223q-55 0 -153 19q-18 2 -43 14q-197 74 -197 287q0 106 56.5 175t148.5 69l332 2v180h-676z" />
<glyph unicode="&#xe7;" horiz-adv-x="911" d="M0 973v84h911v-84h-139v-973h-108v444l-512 -444l-80 72l344 272q-119 0 -183 78q-35 39 -54 92t-19 113v346h-160zM264 612q0 -119 115 -180q18 -6 61 -10q35 0 68 16q55 29 80 51l30 27l41 41v416h-395v-361z" />
<glyph unicode="&#xe8;" horiz-adv-x="540" d="M16 866q0 92 57.5 149.5t149.5 57.5q129 0 174 -98q14 -31 15 -62v-61h-93v63q0 82 -92 82q-45 0 -75 -39l-21 -40l-6 -48q0 -43 10 -76.5t35 -66.5q31 -43 57 -70q25 -18 49 -22l70 20l80 9l37 -2l41 -5l45 -77l-137 -7q-57 -2 -80 -10q-127 -29 -127 -149 q0 -90 108 -131l64 -9q121 0 252 97l45 41l53 57v-109q0 -16 -29 -36l-73 -52q-119 -82 -269 -82q-98 0 -181 62.5t-83 157.5q0 70 51 133l21 20l33 27q-31 14 -62 47q-61 66 -86 113q0 2 -16.5 41.5t-16.5 74.5zM508 973v84h41v-84h-41z" />
<glyph unicode="&#xe9;" horiz-adv-x="1032" d="M0 973v84h1036v-80h-147v-977h-109v457l-381 -205l62 -105l2 -18l2 -10q0 -25 -12 -31l-17 -4l-20 -2l-29 2q-23 2 -37 8l-47 12l-55 25l-37 18q-18 12 -27 23l-14 20l-4 23q0 37 43 70l8 6l14 8l496 211l-37 41l-28 33q-39 45 -74 69q-35 33 -60 43l-30 13l-33 8l-37 4 l-33 2l-49 -2l-45 -6l-18 -4l-23 -7l8 -147l-6 -23l-6 -12l-14 -12l-17 -4l-20 4l-27 16l-31 27l-34 37l-58 74l-12 20l-4 20q0 25 29 48q41 20 88 34l120 21l132 8q78 4 129 -16q29 -12 57 -41q49 -41 88 -88l41 -50l57 -65v420h-780z" />
<glyph unicode="&#xea;" horiz-adv-x="983" d="M0 973v84h999v-84h-219v-213h-432q-96 0 -96 -111q0 -88 100 -147q92 -55 197 -56q92 0 168 31q25 8 49 25l35 22l39 33l80 -61l-76 -52l-64 -32v-232h-411q-23 0 -39.5 -7t-36.5 -28l-23 -34l-6 -41q0 -137 201 -185q45 -10 102 -10q70 0 138 31l94 43q35 16 53 35 l72 -64l-62 -43l-86 -43q-27 -12 -91 -25.5t-114 -13.5q-90 0 -174 19q-141 31 -207 141q-31 51 -30 119q0 119 100 162q33 14 64 14l356 2v133l-47 -10l-33 -2h-41q-166 0 -276 61q-66 37 -101 93.5t-35 121.5q0 96 54.5 140.5t134.5 44.5l344 2v137h-680z" />
<glyph unicode="&#xeb;" horiz-adv-x="983" d="M0 973v84h999v-84h-219v-213h-432q-104 0 -104 -111q0 -43 20 -84q45 -74 166 -108q72 -14 119 -15q86 0 166 29q14 4 47 25l33 20l36 35l76 -64l-63 -43l-64 -32v-232h-465q-37 0 -71 -35l-23 -34l-8 -41q0 -98 113 -158q37 -20 112 -37q57 -14 107 -10l84 6l69 18 q82 23 82 103q0 39 -28 76l-13 8l-18 10l67 66l29 -35l23 -23q45 -45 45 -94q0 -164 -207 -203q-66 -12 -129 -12q-176 0 -310.5 73.5t-134.5 215.5q0 111 103 162q37 14 65 14l408 2v133q-39 -12 -78 -18l-78 -5q-72 -4 -145 17q-154 41 -209 143q-31 55 -31 127 q0 49 15 80q20 59 102 90q37 14 80 15l344 2v137h-680z" />
<glyph unicode="&#xec;" horiz-adv-x="1079" d="M0 973v84h1075v-84h-164v-234h-458l-17 -6l-4 -10l2 -12l4 -9l25 -30l41 -41l28 -25l31 -16l35 -8l39 -2l35 2l45 6l92 14l51 4q70 6 107 -35q12 -16 18 -43l6 -55q0 -115 -119 -186q-23 -14 -104 -41q-55 -12 -117 -13h-57q-18 4 -27 5l-75 16l-29 8l-31 12l31 -51 l26 -35q27 -35 64 -65q27 -16 55 -21l43 2l162 33l59 8q27 0 46 -10q41 -8 71 -63q6 -14 10 -45q0 -55 -28 -109q-61 -115 -246 -141q-29 -4 -70 -4q-106 0 -206 30q-121 39 -201 99l-74 55l-86 74l64 73q41 -41 81 -73q10 -8 70 -47q188 -123 352 -123q57 0 124 25.5 t98 68.5q16 27 20 59q-4 27 -12 35l-19 8l-26 4l-37 -8l-164 -33l-51 -2q-76 -2 -163 79t-87 173v9l2 12v8l4 10l-65 41l-103 72l-33 24l-32 23l-31 25l59 86l86 -78l70 -53q74 -57 186 -99q88 -33 162 -33h33q29 4 80 21q8 4 35 16q98 45 98 119q0 27 -19 37l-22 6l-29 2 l-43 -4l-63 -14l-70 -15l-55 -4q-51 -4 -156 86q-51 41 -84 84q-25 41 -24 74l6 41q6 18 22 29l33 16l39 6l381 2v154h-805z" />
<glyph unicode="&#xed;" horiz-adv-x="788" d="M0 973v84h801v-84h-164v-213h-334l-33 -6l-22 -2q-53 -14 -55 -74q-2 -55 40 -94l27 -25l21 -8l92 29l8 -2l10 2h17l14 2h31l8 -2h10l18 -2h15l49 -86h-18l-21 4h-12l-13 2h-57q-18 0 -43 -9l-57 -18q-29 -16 -48.5 -49t-19.5 -72q0 -55 21 -92q14 -31 49 -53l57 -23 l72 -8l35 2l22 6l-4 8v39q0 29 4 43l15 35q12 20 34.5 31.5t51.5 11.5q68 0 86 -63l6 -41l-6 -41l-19 -35q-14 -16 -29 -25l-34 -8l106 -184l-90 -49l-92 209l-8 -7l-19 -2l-28 -4h-31q-123 0 -197 43q-55 31 -84 84q-27 47 -26 127q0 25 4 37l14 41l33 49l12 21l-39 26 l-26 21q-66 66 -66 129q0 86 43 119q29 20 70 32q25 8 59 9l272 2v133h-532z" />
<glyph unicode="&#xee;" horiz-adv-x="1007" d="M-188 748q47 6 71 16l56 14l145 25q61 10 131 10q90 0 127 -10q123 -16 172 -90q27 -41 27 -90q0 -115 -88 -166q-25 -14 -86 -33q-57 -10 -115 -10q53 -188 235 -189q45 0 93 19q59 23 98 57l35 31l43 47v594h-756v84h1008v-84h-144v-973h-108v260q-8 -12 -17 -16 l-34 -23q-111 -72 -230 -71q-152 0 -242 108q-104 121 -104 244l47 -13l60 -4l73 7q51 4 89 38.5t38 83.5q0 63 -65 95l-72 20l-86 8l-94 -6l-105 -18q-55 -10 -123 -33q-53 -14 -77 -27z" />
<glyph unicode="&#xef;" horiz-adv-x="1079" d="M0 973v84h1075v-84h-164v-185h-458l-15 -6l-4 -6l2 -10l13 -14l18 -21l29 -24l39 -27l28 -18l25 -11l24 -2l37 2l43 6l107 19l55 6l57 -6q80 -23 80 -123q0 -92 -67 -145l-29 -23l-39 -23v-206h-453q-23 0 -38 -9l-35 -18l-23 -29l-8 -34q0 -127 127 -172l51 -19l76 -18 q0 23 -4 34l-2 31q-6 78 55 121q51 35 133 35q49 0 81 -7.5t65 -27.5q55 -27 63 -98q0 -100 -90 -142q-78 -35 -190 -34q-223 0 -340 79q-127 86 -127 230q0 96 106 135q33 12 66 12l383 2v97l-13 -5l-28 -2l-33 -2h-23l-73 2q-33 0 -68 11l-70 18l-71 33l-94 47 q-41 20 -58 35l-76 53l-65 64l59 77l82 -77l70 -52q176 -129 352 -129q41 0 74 9q45 8 74 26q98 35 98 121q0 27 -19 37l-22 6l-29 2l-43 -4l-63 -14l-70 -15l-55 -4q-41 -2 -111 37q-18 10 -47 31q-51 35 -78.5 71.5t-27.5 73.5l6 39q6 16 20 29l33 14l41 6l381 2v109h-805 zM643 -143h10l17 -2h10l10 -2h21q33 0 51 4q29 2 39 8q47 16 47 63q0 17 -8 25l-21 8q-16 0 -45 -12l-63 -39l-29 -21z" />
<glyph unicode="&#xf0;" horiz-adv-x="983" d="M0 973v84h999v-84h-219v-213h-432q-104 0 -104 -111q0 -43 20 -84q45 -74 166 -108q72 -14 119 -15q117 0 178 142l16 57l17 84l78 -25q0 -39 -4 -59l-3 -53q-2 -31 -8 -49l-10 -41l-6 -6l-6 -13l-8 -18l-7 -25l-4 -10l-2 -16v-230h-465q-37 0 -71 -35l-23 -34l-8 -41 q0 -98 113 -158q37 -20 112 -37q57 -14 107 -10l84 6l69 18q82 23 82 103q0 39 -28 76l-13 8l-18 10l67 66l29 -35l23 -23q45 -45 45 -94q0 -164 -207 -203q-66 -12 -129 -12q-176 0 -310.5 73.5t-134.5 215.5q0 111 103 162q37 14 65 14l408 2v133q-39 -12 -78 -18l-78 -5 q-72 -4 -145 17q-154 41 -209 143q-31 55 -31 127q0 49 15 80q20 59 102 90q37 14 80 15l344 2v137h-680z" />
<glyph unicode="&#xf1;" horiz-adv-x="491" d="M41 207q0 45 14 76q23 66 105 96q31 12 71 12q84 0 138.5 -51t54.5 -133t-56.5 -133t-136.5 -51q-74 0 -132 46t-58 138zM127 203l6 -43q6 -16 21 -35l30 -23l47 -8l43 8q18 6 33 23l21 35l8 43q0 27 -8 43l-19 35q-12 16 -35 24l-43 8q-47 0 -77 -34l-21 -35z" />
<glyph unicode="&#xf2;" />
<glyph unicode="&#xf3;" horiz-adv-x="1376" d="M0 973v84h1376v-80h-147v-977h-109v403l-293 -268l-79 66l305 248l-6 2l-7 4l-8 2l-6 4q-31 16 -68 24l-73 9l-58 -5l-65 -12l-51 -14l-23 -8l-51 94l84 14l90 15l66 4h24l10 -2h13q14 -2 18 -5l14 -2l-28 52l-21 30q-78 78 -211 78l-45 -4q-29 0 -53 -8q-8 -2 -12 -4 l-15 -2q0 -96 -49 -164q-20 -29 -55 -48.5t-74 -19.5l-22 2l-27 4l127 -192l55 -72l99 -112l43 -43l-84 -70q-37 14 -99 104l-249 363l-58 94l-37 64l-37 65l89 58l59 -115q37 -72 121 -72l45 6q20 6 26 21l15 30l4 44l-2 30v281h-461zM567 801q18 0 30.5 2t20.5 6l56 8 l39 4q176 0 282 -141l33 -59l37 -82l55 -35v469h-553v-172z" />
<glyph unicode="&#xf4;" horiz-adv-x="1304" d="M0 973v84h1296v-84h-565v-260l49 35l66 30l74 19l73 8q141 0 191 -96q16 -35 16 -82q0 -80 -53 -154l-31 -31l-76 54l11 6l8 10q45 57 45 115q0 23 -10 41q-8 35 -64 57l-43 8q-53 0 -160 -65l-43 -27l-53 -39v-207l51 25l29 12l76 27l61 10q115 0 172 -57 q63 -49 64 -150q0 -53 -25 -104q-29 -61 -74 -95l-41 -30l-57 -33l-55 72l43 24l31 23q74 53 73 143q0 37 -10 60q-10 41 -70 55l-55 8q-23 0 -63 -12l-76 -37l-33 -21l-41 -28v-287h-106v209q-10 -14 -29 -25l-64 -32q-43 -23 -88 -36.5t-75 -13.5q-45 0 -93 17 q-84 29 -122 117q-18 41 -19 86q0 37 25 84q2 6 18 26l25 25l24 16l-39 29l-26 37l-17 39l-4 40q0 43 21 84q35 78 127 115q53 20 92 17l47 -5l55 -12l13 -4l16 -6l41 -90l-33 6l-22 6l-62 12l-41 4q-86 0 -137 -88q-6 -14 -10 -49q0 -57 71 -90l31 6l33 2l37 -2l106 -12 l33 -2l41 -94l-22 4l-56 12l-63 10l-43 4q-41 0 -66 -10q-63 -10 -92 -65q-14 -25 -14 -58q0 -57 35 -88q14 -16 43 -26l63 -9q78 0 162 60l57 41l21 26v656h-625z" />
<glyph unicode="&#xf5;" horiz-adv-x="12" d="M-774 1327l76 84l379 -354h-52zM-547 1520l96 53l328 -516h-72zM-260 1456q0 86 66.5 135t156.5 49l57 -6l56 -18v-82l-17 4l-14 6l-41 8l-39 4q-61 0 -97 -41.5t-36 -103.5q0 -47 17.5 -97t48.5 -91l28 -39l39 -47l-78 2q-18 12 -28 28l-47 74q-6 8 -27 55l-27 58 q-18 55 -18 102zM-53 1315v115h125v-115h-125z" />
<glyph unicode="&#xf6;" horiz-adv-x="1007" d="M-2 193q-4 41 39 83q37 31 94 37l27 -4l26 -12l23 -18l18 -27l70 -150l237 125q-55 0 -153 19q-18 2 -43 14q-197 74 -197 287q0 106 56.5 175t148.5 69l332 2v180h-676v84h1004v-84h-220v-260h-399q-137 0 -137 -166q0 -160 180 -234q53 -16 113 -16l20 2l31 4l37 6 l-2 19q0 16 10 37q31 113 111 112q66 0 86 -59l6 -37q0 -49 -29 -94q-16 -25 -39 -39q-14 -6 -45 -10l4 -27l14 -72l15 -45l24 -59l35 -55l21 -29l20 -23h-121l-37 84l-24 60q-18 45 -27 80l-8 73l-326 -172l48 -100l2 -8l-5 -8l-10 -11q-23 0 -35 4l-69 23q-14 6 -29 10 q-29 12 -67 39v10l6 15l12 14l68 33l-72 157l-21 23l-26 8l-25 -6q-10 -2 -22 -14l-17 -21l-4 -24l2 -13v-8l13 -18l6 -8l8 -7l6 -6l10 -8l-55 -25l-8 5l-4 6l-13 14l-8 14l-8 25z" />
<glyph unicode="&#xf7;" horiz-adv-x="759" d="M0 973v84h768v-84h-113v-260h-391l-14 -11l-4 -10l2 -20l10 -23l21 -35l36 -45l25 -26l27 -17l26 -8l35 -2l33 2q33 2 55 8l53 9l35 4q37 0 64 -19l32 -22l21 -9l53 -16l51 -4l58 6q18 4 51 21l8 4l10 10v-102l-16 -2h-14l-17 -3h-12l-29 -4h-57q-16 0 -25 4l-12 3 q-10 2 -12 4l-15 4l-12 8v-57q0 -104 -80 -175q-102 -88 -186 -88l94 -59l109 -47l-64 -80l-160 98l-36 27l-33 27l-19 18l-49 2h-69q-59 0 -95 47q-10 18 -14 55l6 31l19 31l26 18l33 9q20 0 31.5 -2.5t29.5 -12.5l29 -16l31 -23l20 -22l27 -33l70 14q37 8 51 17 q123 55 123 178q0 25 -4 31l-13 20l-18 12l-25 4l-35 -4l-94 -24l-28 -4l-46 6q-43 12 -92 53l-45 47q-90 94 -90 182q0 51 43 78l29 11l37 4l305 2v176h-549z" />
<glyph unicode="&#xf8;" horiz-adv-x="415" d="M68 551l20 16l18 13l37 30l25 31l16 31l15 41l10 41l4 32v431q0 45 18 94q37 98 119 137q43 20 88 20l27 -4l35 -6l168 2v-63h-164q-41 0 -80 -17q-78 -31 -111 -98q-14 -37 -14 -72l-4 -456q0 -20 -8 -47q-2 -16 -17 -52l-22 -37l-109 -65l21 -16l16 -9q23 -10 37 -28 l27 -23l8 -14l12 -17l19 -51l14 -55l6 -43v-418q0 -86 55 -129q41 -33 105 -41q14 -2 45 -2h164v-80h-168q-207 0 -264 140q-23 51 -23 108v428q0 70 -39 139.5t-106 108.5z" />
<glyph unicode="&#xf9;" horiz-adv-x="1404" d="M0 973v84h1409v-84h-149v-973h-107v205h-334v-113l-2 -22q-2 -10 -4 -13l-16 -12l-21 -4q-37 0 -117 82q-76 72 -84 119l3 16l10 12l16 6l25 7l80 2v172h-357q-33 0 -59 8h-10q-10 2 -13 4l-16 6l-37 39l-24 35q-31 45 -46.5 82t-15.5 76l6 36q6 14 23 29l30 16l37 7 l432 2v176h-659zM246 674q0 -45 35 -84l32 -37q8 -6 27 -10l479 2v-260h334v688h-385v-264h-487q-29 0 -35 -35z" />
<glyph unicode="&#x152;" horiz-adv-x="897" d="M152 467q0 106 58 192t157 127q66 27 129 27q141 0 248.5 -100.5t107.5 -245.5q0 -135 -91.5 -232.5t-236.5 -97.5q-137 0 -254.5 94.5t-117.5 235.5zM256 401q0 -39 18 -73q12 -25 48 -58q27 -20 69 -41q37 -12 80 -12q80 0 154 57q68 51 104 132q27 55 27 116 q0 84 -56.5 140.5t-150.5 56.5q-119 0 -206 -95.5t-87 -222.5z" />
<glyph unicode="&#x153;" />
<glyph unicode="&#x178;" horiz-adv-x="712" d="M0 973v84h805v-84h-805zM43 672v80h856v-80h-371q-70 0 -131 -51.5t-61 -131.5q0 -117 129 -266l53 -61l78 -76l-64 -78l-86 90l-61 74q-150 180 -149 317q0 59 26 101q4 8 19 28l51 52z" />
<glyph unicode="&#x2c6;" horiz-adv-x="964" d="M180 846q0 94 74 143q25 12 53 12l318 3l47 -97h-303q-16 0 -37 -9t-33 -28l-20 -41q-6 -18 -7 -47q0 -27 15 -49l32 -53l17 -21l24 -24l273 2l51 -100h-260q-49 0 -80 -56l-22 -55l-7 -55q0 -131 117 -197q39 -14 74 -14l49 8l-6 4l-2 4l-8 23l-2 26q-6 72 69 103l41 8 q82 0 109 -68q8 -25 8 -51q0 -29 -7 -49.5t-28 -42.5l-24 -29l-21 -14l45 -72l53 -73l56 -72l55 -58l-82 -51l-23 33l-14 23l-37 59l-86 158l-14 37l-23 -7l-20 -6q-16 0 -25 -4h-20q-115 0 -232 123q-53 57 -86 123q-27 55 -26 127q0 90 57 160l14 12l17 16l-43 49l-37 62 l-25 63z" />
<glyph unicode="&#x2dc;" horiz-adv-x="1007" d="M-2 193q-4 41 39 83q37 31 94 37l27 -4l26 -12l23 -18l18 -27l70 -150l237 125q-55 0 -153 19q-18 2 -43 14q-197 74 -197 287q0 106 56.5 175t148.5 69l332 2v180h-676v84h1004v-84h-220v-260h-399q-137 0 -137 -166q0 -160 180 -234q53 -16 113 -16l20 2l31 4l37 6 l-2 19q0 16 10 37q31 113 111 112q66 0 86 -59l6 -37q0 -49 -29 -94q-16 -25 -39 -39q-14 -6 -45 -10l4 -27l14 -72l15 -45l24 -59l35 -55l21 -29l20 -23h-121l-37 84l-24 60q-18 45 -27 80l-8 73l-326 -172l48 -100l2 -8l-5 -8l-10 -11q-23 0 -35 4l-69 23q-14 6 -29 10 q-29 12 -67 39v10l6 15l12 14l68 33l-72 157l-21 23l-26 8l-25 -6q-10 -2 -22 -14l-17 -21l-4 -24l2 -13v-8l13 -18l6 -8l8 -7l6 -6l10 -8l-55 -25l-8 5l-4 6l-13 14l-8 14l-8 25z" />
<glyph unicode="&#x2000;" horiz-adv-x="820" />
<glyph unicode="&#x2001;" horiz-adv-x="1640" />
<glyph unicode="&#x2002;" horiz-adv-x="820" />
<glyph unicode="&#x2003;" horiz-adv-x="1640" />
<glyph unicode="&#x2004;" horiz-adv-x="546" />
<glyph unicode="&#x2005;" horiz-adv-x="410" />
<glyph unicode="&#x2006;" horiz-adv-x="273" />
<glyph unicode="&#x2007;" horiz-adv-x="273" />
<glyph unicode="&#x2008;" horiz-adv-x="205" />
<glyph unicode="&#x2009;" horiz-adv-x="328" />
<glyph unicode="&#x200a;" horiz-adv-x="91" />
<glyph unicode="&#x2010;" horiz-adv-x="344" d="M104 0v135h144v-135h-144z" />
<glyph unicode="&#x2011;" horiz-adv-x="344" d="M104 0v135h144v-135h-144z" />
<glyph unicode="&#x2012;" horiz-adv-x="344" d="M104 0v135h144v-135h-144z" />
<glyph unicode="&#x2013;" horiz-adv-x="1007" d="M0 973v84h1028v-84h-223v-277h-377q-53 0 -102 -49l-33 -51q-6 -16 -10 -55q0 -188 178 -254l74 -17l106 -8q-2 10 -4 12v11q0 20 -4 30l-2 23q0 31 4 45l18 41q25 39 86 39q20 0 37 -10q35 -12 55 -62l9 -41q0 -68 -39 -102l-17 -15l-24 -16l51 -113l35 -59l35 -47 l14 -16l16 -23h-135l-55 109l-57 120l-17 -4h-14q-160 0 -266 52q-98 47 -142.5 119.5t-44.5 183.5q0 92 59.5 167.5t145.5 75.5l303 2v189h-688zM444 -274q0 102 58 159q31 31 72.5 47.5t82.5 16.5h172v-84h-145q-53 0 -90 -39q-23 -20 -33 -41l-8 -51q0 -76 58.5 -117 t125.5 -41q33 0 47 4q25 2 47 14l46 25q20 10 24 23l55 -80l-36 -21l-29 -14l-43 -14l-41 -13l-43 -6l-43 -2q-43 -2 -98 16q-109 37 -154 119q-25 47 -25 99z" />
<glyph unicode="&#x2014;" horiz-adv-x="1304" d="M0 973v84h1300v-84h-569v-309l37 34l25 21q61 51 143 51q115 0 201 -78q80 -72 80 -186q0 -119 -107 -250l-45 -55l-61 -68l-89 68q14 4 33 22q90 90 133 193q23 55 23 98q0 57 -21 100q-37 72 -135 72q-84 0 -155 -90q-27 -35 -44.5 -79t-17.5 -79v-438h-106v303 q-76 -76 -191 -76q-117 0 -206 80t-89 203t84 199q61 55 144 73q27 6 55 6l55 -6q37 -8 55 -16v-86l-49 16l-45 6q-74 0 -131 -53q-18 -18 -41 -61q-14 -37 -14 -74q0 -88 51 -145q25 -31 59.5 -47.5t69.5 -16.5q74 0 150 76q43 43 43 82v510h-625zM352 -219q0 143 127 205 q43 14 84 14h168v-80h-139q-53 0 -90 -37q-20 -20 -33 -45l-8 -51q0 -37 14 -63q14 -35 70 -68q41 -23 102 -23q94 0 162 60l51 -80l-35 -21l-28 -14q-92 -35 -168 -35q-55 0 -99 17q-102 29 -155 125q-23 41 -23 96z" />
<glyph unicode="&#x2018;" />
<glyph unicode="&#x2019;" horiz-adv-x="759" d="M0 973v84h756v-84h-148q29 -29 43 -55l33 -60l18 -63l9 -66q0 -109 -65.5 -208t-164.5 -142q-68 -29 -145 -29l340 -282l-72 -72l-491 416l71 71l68 -55l12 -4h12l54 2q61 8 114 37l64 43l49 51l33 55l10 43l4 60l-31 -27l-24 -18q-33 -25 -70 -37q-18 -6 -63 -10 q-98 0 -164 63q-35 31 -54.5 71t-19.5 83q0 66 58 131zM289 850q0 -61 39 -100t100 -39q70 0 125 55l16 22l23 33l-19 43q-6 20 -16 33q-51 78 -137 78q-35 0 -55 -10q-47 -12 -68 -68z" />
<glyph unicode="&#x201a;" horiz-adv-x="440" d="M-219 1470l106 3q0 -94 68 -158q27 -20 70 -37.5t84 -17.5q96 0 157.5 58t61.5 152l106 3q-20 -210 -196 -269q-63 -23 -132 -22q-143 0 -223 78.5t-102 209.5zM-20 973v84h507v-84h-198v-973h-109v973h-200z" />
<glyph unicode="&#x201c;" horiz-adv-x="1011" d="M8 866q-6 88 57.5 139.5t149.5 51.5q139 0 182 -105q14 -37 15 -75v-277h321v373h-201v84h508v-84h-198v-973h-109v512h-321v-186l-2 -13l-17 -14l-20 -4q-20 0 -54 27q-53 39 -90 81l-77 93q-23 35 -27 55l6 16l16 17l19 10l14 4l123 2v287q0 39 -26.5 64.5t-65.5 25.5 q-18 0 -41 -8l-35 -19l-22 -32l-9 -44l2 -28l11 -31l4 -14l10 -19l-102 2l-9 15l-2 12l-8 29z" />
<glyph unicode="&#x201d;" />
<glyph unicode="&#x201e;" horiz-adv-x="897" d="M125 969l51 12l86 18l88 15l66 4q70 4 145 -27q152 -68 215 -209q29 -70 29 -141q0 -111 -72 -203q-35 -43 -78 -76q-35 -27 -84 -45l47 -98q20 -43 58 -90l67 -86l80 -80l-88 -43l-69 92l-58 88l-57 99l-43 98l-57 -2l-89 6q-84 14 -120 80q-18 31 -19 78q0 51 35 73 l39 25l47 8q70 0 119 -67l20 -29l25 -39l37 14l28 15q147 74 148 215q0 61 -23 104q-41 106 -200 131q-27 4 -58 4q-70 0 -141 -18q-47 -12 -98 -49z" />
<glyph unicode="&#x2022;" />
<glyph unicode="&#x2026;" horiz-adv-x="823" d="M172 1004h324q84 0 157 -74q63 -78 64 -172q0 -84 -47 -148l-21 -22l-28 -27q43 -31 69 -88q16 -35 19 -59l6 -58q0 -94 -49.5 -160.5t-133.5 -84.5l13 -23l22 -33l31 -37l35 -38l33 -39l41 -43l36 -35l21 -19l-76 -63l-45 55l-47 60l-33 45l-53 84l-29 43l-10 22l-57 2 l-80 2q-70 10 -109 60q-16 29 -16 71q0 41 31 68l32 20l39 9q41 0 109 -50l51 -51q14 0 35 10l53 33q74 45 74 111q0 23 -8 45l-19 51l-22 41l-13 14l-223 2l-76 105h248l35 16l27 19q53 37 61 118q0 66 -43 93q-31 16 -59 18l-80 8l-64 -4q-41 -2 -75 -8l-64 -10 q-23 -4 -27 -9z" />
<glyph unicode="&#x202f;" horiz-adv-x="328" />
<glyph unicode="&#x2039;" horiz-adv-x="915" d="M113 651h239l-14 6l-12 11l-17 16q-18 23 -31.5 59.5t-13.5 73.5q0 117 82 156q37 18 82 26l109 9h122l17 -101l-37 2q-20 2 -27 4l-65 7l-51 2q-70 2 -121 -44.5t-51 -111.5q0 -35 26 -66q8 -12 19 -20l18 -14l29 -17l389 2l18 -102h-323q-47 0 -117 -84 q-51 -61 -64 -115q-4 -18 -4 -41q0 -102 58 -133q27 -14 61 -20l86 -6l72 2q96 2 143 -17q109 -25 148 -96q16 -33 16 -72l-6 -35q-2 -14 -14 -28l-21 -15l-31 -20l-39 31l29 16l12 6q8 6 15 21l4 28q-2 10 -4 13l-15 10l-22 10l-29 10q-23 8 -73 19l-89 6q-47 2 -94 6 t-94 18q-106 33 -152 134q-33 72 -32 186q0 76 37 123l14 18l24 23l-180 -2z" />
<glyph unicode="&#x203a;" horiz-adv-x="12" d="M-774 1327l76 84l379 -354h-52zM-547 1520l96 53l328 -516h-72zM-260 1456q0 86 66.5 135t156.5 49l57 -6l56 -18v-82l-17 4l-14 6l-41 8l-39 4q-61 0 -97 -41.5t-36 -103.5q0 -47 17.5 -97t48.5 -91l28 -39l39 -47l-78 2q-18 12 -28 28l-47 74q-6 8 -27 55l-27 58 q-18 55 -18 102zM-53 1315v115h125v-115h-125z" />
<glyph unicode="&#x205f;" horiz-adv-x="410" />
<glyph unicode="&#x2122;" horiz-adv-x="593" d="M0 973v84h827v-80zM39 702q0 25 29 48q41 20 88 34l120 21l132 8q78 4 129 -16q29 -12 57 -41q49 -41 88 -88l41 -50l57 -65v-96l-381 -205l62 -105l2 -18l2 -10q0 -25 -12 -31l-17 -4l-20 -2l-29 2q-23 2 -37 8l-47 12l-55 25l-37 18q-18 12 -27 23l-14 20l-4 23 q0 37 43 70l8 6l14 8l496 211l-37 41l-28 33q-39 45 -74 69q-35 33 -60 43l-30 13l-33 8l-37 4l-33 2l-49 -2l-45 -6l-18 -4l-23 -7l8 -147l-6 -23l-6 -12l-14 -12l-17 -4l-20 4l-27 16l-31 27l-34 37l-58 74l-12 20z" />
<glyph unicode="&#x25fc;" horiz-adv-x="1054" d="M0 0v1055h1055v-1055h-1055z" />
</font>
</defs>
</svg>
